<?xml version="1.0" encoding="UTF-8" standalone="no"?>
<svg
   xmlns:dc="http://purl.org/dc/elements/1.1/"
   xmlns:cc="http://creativecommons.org/ns#"
   xmlns:rdf="http://www.w3.org/1999/02/22-rdf-syntax-ns#"
   xmlns:svg="http://www.w3.org/2000/svg"
   xmlns="http://www.w3.org/2000/svg"
   xmlns:sodipodi="http://sodipodi.sourceforge.net/DTD/sodipodi-0.dtd"
   xmlns:inkscape="http://www.inkscape.org/namespaces/inkscape"
   aria-hidden="true"
   data-prefix="fas"
   data-icon="cog"
   role="img"
   viewBox="0 0 800 800"
   class="svg-inline--fa fa-cog fa-w-16 fa-9x"
   version="1.1"
   id="svg293"
   sodipodi:docname="engrenages.svg"
   width="800"
   height="800"
   inkscape:version="0.92.2 (5c3e80d, 2017-08-06)">
  <metadata
     id="metadata299">
    <rdf:RDF>
      <cc:Work
         rdf:about="">
        <dc:format>image/svg+xml</dc:format>
        <dc:type
           rdf:resource="http://purl.org/dc/dcmitype/StillImage" />
        <dc:title></dc:title>
      </cc:Work>
    </rdf:RDF>
  </metadata>
  <defs
     id="defs297" />
  <sodipodi:namedview
     pagecolor="#ffffff"
     bordercolor="#666666"
     borderopacity="1"
     objecttolerance="10"
     gridtolerance="10"
     guidetolerance="10"
     inkscape:pageopacity="0"
     inkscape:pageshadow="2"
     inkscape:window-width="1920"
     inkscape:window-height="1016"
     id="namedview295"
     showgrid="false"
     showguides="true"
     inkscape:guide-bbox="true"
     inkscape:zoom="0.4609375"
     inkscape:cx="296.72582"
     inkscape:cy="429.55932"
     inkscape:window-x="0"
     inkscape:window-y="27"
     inkscape:window-maximized="1"
     inkscape:current-layer="svg293" />
  <g
     id="g821"
     transform="translate(11.291124,-86.348229)">
    <path
       style="fill:currentColor"
       inkscape:connector-curvature="0"
       id="path291"
       class=""
       d="m 444.788,535.71017 42.616,24.599 c 4.867,2.809 7.126,8.618 5.459,13.985 -11.07,35.642 -29.97,67.842 -54.689,94.586 a 12.016,12.016 0 0 1 -14.832,2.254 l -42.584,-24.595 a 191.577,191.577 0 0 1 -60.759,35.13 v 49.182 a 12.01,12.01 0 0 1 -9.377,11.718 c -34.956,7.85 -72.499,8.256 -109.219,0.007 -5.49,-1.233 -9.403,-6.096 -9.403,-11.723 v -49.184 a 191.555,191.555 0 0 1 -60.759,-35.13 l -42.584,24.595 a 12.016,12.016 0 0 1 -14.832,-2.254 c -24.718,-26.744 -43.619,-58.944 -54.689,-94.586 -1.667,-5.366 0.592,-11.175 5.459,-13.985 l 42.617,-24.599 a 193.48,193.48 0 0 1 0,-70.199 l -42.616,-24.599 c -4.867,-2.809 -7.126,-8.618 -5.459,-13.985 11.07,-35.642 29.97,-67.842 54.689,-94.586 a 12.016,12.016 0 0 1 14.832,-2.254 l 42.584,24.595 a 191.577,191.577 0 0 1 60.759,-35.13 v -49.183 a 12.01,12.01 0 0 1 9.377,-11.718 c 34.956,-7.85 72.499,-8.256 109.219,-0.007 5.49,1.233 9.403,6.096 9.403,11.723 v 49.184 a 191.555,191.555 0 0 1 60.759,35.13 l 42.584,-24.595 a 12.016,12.016 0 0 1 14.832,2.254 c 24.718,26.744 43.619,58.944 54.689,94.586 1.667,5.366 -0.592,11.175 -5.459,13.985 l -42.617,24.599 a 193.485,193.485 0 0 1 0,70.2 z M 336,500.61017 c 0,-44.112 -35.888,-80 -80,-80 -44.112,0 -80,35.888 -80,80 0,44.112 35.888,80 80,80 44.112,0 80,-35.888 80,-80 z" />
    <path
       style="fill:currentColor;stroke-width:0.49620286"
       inkscape:connector-curvature="0"
       id="path291-6"
       class=""
       d="m 687.30175,411.19514 6.32158,23.58361 c 0.72209,2.69327 -0.52349,5.52407 -2.9915,6.82228 -16.38977,8.62154 -34.31913,13.28811 -52.37587,13.99862 a 5.9623737,5.9623737 0 0 1 -5.99494,-4.41323 l -6.31177,-23.57098 a 95.061057,95.061057 0 0 1 -33.64442,-8.99241 l -17.25641,17.25641 a 5.9593964,5.9593964 0 0 1 -7.40157,0.82138 c -15.01928,-9.51064 -28.33438,-22.54084 -38.32362,-38.31938 -1.49365,-2.35888 -1.16032,-5.4381 0.81401,-7.41243 l 17.25678,-17.25678 a 95.05014,95.05014 0 0 1 -8.9924,-33.64443 l -23.571,-6.31177 a 5.9623737,5.9623737 0 0 1 -4.41322,-5.99494 c 0.71086,-18.05639 5.37707,-35.98612 13.9986,-52.37589 1.29786,-2.46765 4.12867,-3.71323 6.82228,-2.9915 l 23.58398,6.32195 a 96.005331,96.005331 0 0 1 24.6306,-24.63061 l -6.32159,-23.58362 c -0.72209,-2.69327 0.5235,-5.52408 2.99151,-6.82229 16.38976,-8.62154 34.31914,-13.28808 52.37589,-13.9986 a 5.9623737,5.9623737 0 0 1 5.99493,4.41322 l 6.31177,23.571 a 95.061057,95.061057 0 0 1 33.64442,8.9924 l 17.25676,-17.25676 a 5.9593964,5.9593964 0 0 1 7.40157,-0.82138 c 15.01928,9.51063 28.33439,22.54083 38.32362,38.31938 1.49364,2.35888 1.16032,5.4381 -0.81402,7.41244 l -17.25711,17.25711 a 95.05014,95.05014 0 0 1 8.9924,33.64443 l 23.57134,6.31143 a 5.9623737,5.9623737 0 0 1 4.41322,5.99494 c -0.71086,18.05639 -5.37708,35.98611 -13.99861,52.37587 -1.29786,2.46766 -4.12867,3.71323 -6.8223,2.9915 l -23.58395,-6.32193 a 96.007812,96.007812 0 0 1 -24.63096,24.63096 z m -25.85479,-50.48575 c 15.4775,-15.47751 15.4775,-40.66144 0,-56.13895 -15.47751,-15.4775 -40.66144,-15.4775 -56.13895,0 -15.47751,15.47751 -15.47751,40.66144 0,56.13895 15.47751,15.47751 40.66144,15.47751 56.13895,0 z" />
    <path
       style="fill:currentColor;stroke-width:0.49620286"
       inkscape:connector-curvature="0"
       id="path291-6-7"
       class=""
       d="m 721.80791,681.09963 17.26645,17.26322 c 1.97198,1.97139 2.30868,5.04573 0.82042,7.40401 -9.88318,15.66136 -23.07718,28.66741 -38.35953,38.3111 a 5.9623737,5.9623737 0 0 1 -7.39837,-0.8245 l -17.25165,-17.25719 a 95.061057,95.061057 0 0 1 -33.63313,9.03456 l -6.31628,23.57269 a 5.9593964,5.9593964 0 0 1 -5.99926,4.41213 c -17.7624,-0.72683 -35.80871,-5.35376 -52.34891,-14.02375 -2.47298,-1.29602 -3.72391,-4.12937 -3.00126,-6.82636 l 6.31642,-23.5732 a 95.05014,95.05014 0 0 1 -24.60986,-24.64072 l -23.56897,6.31934 a 5.9623737,5.9623737 0 0 1 -6.81943,-2.98516 c -8.41257,-15.99272 -13.33639,-33.85343 -14.0648,-52.35815 -0.10985,-2.78598 1.71892,-5.28008 4.41252,-6.00185 l 23.58529,-6.31703 a 96.005331,96.005331 0 0 1 9.01543,-33.64603 l -17.26647,-17.26322 c -1.97198,-1.97139 -2.30867,-5.04574 -0.82042,-7.40403 9.88317,-15.66135 23.0772,-28.66739 38.35955,-38.31109 a 5.9623737,5.9623737 0 0 1 7.39837,0.8245 l 17.25165,17.2572 a 95.061057,95.061057 0 0 1 33.63313,-9.03457 l 6.31641,-23.57317 a 5.9593964,5.9593964 0 0 1 5.99926,-4.41212 c 17.76238,0.72681 35.8087,5.35374 52.3489,14.02374 2.47298,1.29603 3.72392,4.12938 3.00126,6.82638 l -6.31654,23.57365 a 95.05014,95.05014 0 0 1 24.60986,24.64072 l 23.5691,-6.3198 a 5.9623737,5.9623737 0 0 1 6.81943,2.98515 c 8.41257,15.99273 13.33636,33.85343 14.06478,52.35815 0.10985,2.78598 -1.71892,5.28008 -4.41253,6.00186 l -23.58526,6.31702 a 96.007812,96.007812 0 0 1 -9.01556,33.64652 z m -47.63379,-30.79455 c 5.66516,-21.14267 -6.9268,-42.95259 -28.06947,-48.61775 -21.14266,-5.66516 -42.95258,6.92681 -48.61775,28.06947 -5.66516,21.14267 6.92681,42.9526 28.06947,48.61775 21.14267,5.66517 42.95259,-6.9268 48.61775,-28.06947 z" />
  </g>
</svg>
