<?xml version="1.0" encoding="UTF-8" standalone="no"?>
<!-- Created with Inkscape (http://www.inkscape.org/) -->

<svg
   xmlns:dc="http://purl.org/dc/elements/1.1/"
   xmlns:cc="http://creativecommons.org/ns#"
   xmlns:rdf="http://www.w3.org/1999/02/22-rdf-syntax-ns#"
   xmlns:svg="http://www.w3.org/2000/svg"
   xmlns="http://www.w3.org/2000/svg"
   xmlns:sodipodi="http://sodipodi.sourceforge.net/DTD/sodipodi-0.dtd"
   xmlns:inkscape="http://www.inkscape.org/namespaces/inkscape"
   viewBox="0 0 125 125"
   width="100%"
   height="100%"
   id="svg3114"
   version="1.1"
   sodipodi:docname="raisins.svg"
   inkscape:version="0.92.2 (5c3e80d, 2017-08-06)">
  <defs
     id="defs3116" />
  <sodipodi:namedview
     id="base"
     pagecolor="#ffffff"
     bordercolor="#666666"
     borderopacity="1.0"
     showgrid="false"
     showguides="true"
     fit-margin-top="0"
     fit-margin-left="0"
     fit-margin-right="0"
     fit-margin-bottom="0"
     inkscape:zoom="3.776"
     inkscape:cx="1.4982443"
     inkscape:cy="62.5"
     inkscape:window-width="1920"
     inkscape:window-height="1016"
     inkscape:window-x="0"
     inkscape:window-y="27"
     inkscape:window-maximized="1"
     inkscape:current-layer="layer1" />
  <metadata
     id="metadata3119">
    <rdf:RDF>
      <cc:Work
         rdf:about="">
        <dc:format>image/svg+xml</dc:format>
        <dc:type
           rdf:resource="http://purl.org/dc/dcmitype/StillImage" />
        <dc:title></dc:title>
      </cc:Work>
    </rdf:RDF>
  </metadata>
  <g
     id="layer1"
     transform="translate(-0.03995158,1.2985379)">
    <path
       d="m 92.30753,5.1669491 c -11.68866,-0.222409 -23.187661,6.7092629 -33.125,18.8964849 -0.530061,-0.90744 -0.962678,-1.876482 -1.30664,-2.865235 -0.589027,-1.693226 -0.904103,-3.488489 -1.048829,-5.27539 -0.06195,-0.764911 0.0151,-1.536124 0.08008,-2.300782 0.114729,-1.349519 0.776012,-2.692817 0.544921,-4.0273429 -0.123999,-0.716077 -0.2817,-1.838687 -1.001953,-1.935547 -3.349243,-0.450358 -3.890738,-0.14752 -6.992187,0.589843 -1.142266,-0.02116 -0.792927,2.1620689 -0.955078,3.2929689 -0.280884,1.958958 -0.346686,3.984445 -0.01563,5.935547 0.338834,1.996929 1.013735,3.972376 2.019531,5.730469 1.012552,1.769895 2.354496,3.39973 3.943359,4.677734 0.25773,0.207305 0.530347,0.394546 0.808594,0.574219 H 30.909093 c -1.517331,-0.263353 -3.336742,-0.310899 -5.494141,0 -6.007089,1.010182 -12.937501,5.763927 -12.937501,12.90625 0,7.142323 5.790149,12.9375 12.937501,12.9375 1.314368,0 2.556263,-0.23186 3.75,-0.59375 -2.565909,2.361087 -4.1875,5.705332 -4.1875,9.46875 0,7.143578 5.79015,12.9375 12.9375,12.9375 1.171119,0 2.291841,-0.20722 3.375,-0.5 -2.476692,2.357319 -4.03125,5.658241 -4.03125,9.34375 0,7.143584 5.790151,12.9375 12.9375,12.9375 0.473725,0 0.913841,-0.0735 1.375,-0.125 -1.133421,1.9238 -1.84375,4.138762 -1.84375,6.531252 0,7.14358 5.790151,12.9375 12.9375,12.9375 7.14358,0 12.9375,-5.79392 12.9375,-12.9375 0,-2.38874 -0.682847,-4.606202 -1.8125,-6.531252 0.394562,0.0378 0.782885,0.125 1.1875,0.125 7.14358,0 12.9375,-5.793916 12.9375,-12.9375 0,-3.721949 -1.61061,-7.046418 -4.125,-9.40625 1.13845,0.329221 2.317243,0.5625 3.5625,0.5625 7.142323,0 12.937498,-5.79392 12.937498,-12.9375 0,-3.708127 -1.56193,-7.018938 -4.062498,-9.375 1.100752,0.306602 2.237478,0.5 3.4375,0.5 7.142318,-0.0012 12.937498,-5.793921 12.937498,-12.9375 0,-7.14358 -5.79518,-12.90625 -12.937498,-12.90625 H 94.180577 C 98.665226,18.532021 96.309483,5.5243711 96.309483,5.5243711 94.974471,5.3109001 93.639845,5.1923001 92.30753,5.1669491 Z M 50.352452,32.366168 c 4.953385,0 8.96875,4.014109 8.96875,8.96875 0,4.954641 -4.014108,9 -8.96875,9 -4.954641,0 -8.96875,-4.045359 -8.96875,-9 0,-4.954641 4.015365,-8.96875 8.96875,-8.96875 z m 24.5625,0 c 4.820647,0.15139 8.6875,4.110098 8.6875,8.96875 0,4.954641 -4.014108,9 -8.96875,9 -4.954642,0 -8.96875,-4.045359 -8.96875,-9 0,-4.624236 3.506471,-8.450589 8,-8.9375 0.02015,-0.0022 0.04231,0.002 0.0625,0 0.38009,3.49e-4 0.803298,0 1.15625,0 0.01001,0 0.02131,-0.02096 0.03125,-0.03125 z m -49.5,0.03125 c 4.953385,0 8.96875,4.014109 8.96875,8.96875 0,4.954641 -4.014109,9 -8.96875,9 -4.954642,0 -8.968751,-4.045359 -8.968751,-9 0,-4.954641 4.014109,-8.96875 8.968751,-8.96875 z m 74.25,0 c 4.953388,0 8.968748,4.014109 8.968748,8.96875 0,4.954641 -4.01411,9 -8.968748,9 -4.954641,0 -9,-4.045359 -9,-9 0,-4.954641 4.045359,-8.96875 9,-8.96875 z m -61.75,21.8125 c 4.953385,0 8.96875,4.014109 8.96875,8.96875 0,4.954641 -4.014109,8.96875 -8.96875,8.96875 -4.954641,0 -8.96875,-4.014109 -8.96875,-8.96875 0,-4.954641 4.014109,-8.96875 8.96875,-8.96875 z m 24.78125,0 c 4.953385,0 8.96875,4.014109 8.96875,8.96875 0,4.954641 -4.014109,8.96875 -8.96875,8.96875 -4.954641,0 -8.96875,-4.014109 -8.96875,-8.96875 0,-4.954641 4.015365,-8.96875 8.96875,-8.96875 z m 24.65625,0 c 4.953385,0 9,4.014109 9,8.96875 0,4.954641 -4.045359,8.96875 -9,8.96875 -4.954641,0 -8.96875,-4.014109 -8.96875,-8.96875 0,-4.954641 4.014109,-8.96875 8.96875,-8.96875 z m -37.15625,21.78125 c 4.954641,0 8.96875,4.014109 8.96875,8.96875 0,4.954641 -4.014109,8.96875 -8.96875,8.96875 -4.953385,0 -9,-4.012852 -9,-8.96875 0.0013,-4.954641 4.046615,-8.96875 9,-8.96875 z m 24.78125,0 c 4.953385,0 8.96875,4.014109 8.96875,8.96875 0,4.954641 -4.014109,8.96875 -8.96875,8.96875 -4.954641,0 -8.96875,-4.012852 -8.96875,-8.96875 0,-4.954641 4.015365,-8.96875 8.96875,-8.96875 z m -12.3125,19.34375 c 4.953385,0 9,4.01411 9,8.968752 0,4.95464 -4.045359,8.96875 -9,8.96875 -4.954641,0 -8.96875,-4.01411 -8.96875,-8.96875 0,-4.954642 4.014109,-8.968752 8.96875,-8.968752 z"
       id="path5"
       inkscape:connector-curvature="0" />
  </g>
</svg>
