<?xml version="1.0" encoding="UTF-8" standalone="no"?>
<!-- Created with Inkscape (http://www.inkscape.org/) -->

<svg
   xmlns:dc="http://purl.org/dc/elements/1.1/"
   xmlns:cc="http://creativecommons.org/ns#"
   xmlns:rdf="http://www.w3.org/1999/02/22-rdf-syntax-ns#"
   xmlns:svg="http://www.w3.org/2000/svg"
   xmlns="http://www.w3.org/2000/svg"
   xmlns:sodipodi="http://sodipodi.sourceforge.net/DTD/sodipodi-0.dtd"
   xmlns:inkscape="http://www.inkscape.org/namespaces/inkscape"
   width="120.31024mm"
   height="74.462379mm"
   viewBox="0 0 120.31024 74.462379"
   version="1.1"
   id="svg576"
   inkscape:version="0.92.2 (5c3e80d, 2017-08-06)"
   sodipodi:docname="ivbd.svg">
  <defs
     id="defs570" />
  <sodipodi:namedview
     id="base"
     pagecolor="#ffffff"
     bordercolor="#666666"
     borderopacity="1.0"
     inkscape:pageopacity="0.0"
     inkscape:pageshadow="2"
     inkscape:zoom="0.98994949"
     inkscape:cx="-26.295016"
     inkscape:cy="-1.3587703"
     inkscape:document-units="mm"
     inkscape:current-layer="layer1"
     showgrid="false"
     fit-margin-left="2"
     fit-margin-top="6"
     fit-margin-right="2"
     fit-margin-bottom="6"
     inkscape:window-width="1920"
     inkscape:window-height="1016"
     inkscape:window-x="0"
     inkscape:window-y="27"
     inkscape:window-maximized="1" />
  <metadata
     id="metadata573">
    <rdf:RDF>
      <cc:Work
         rdf:about="">
        <dc:format>image/svg+xml</dc:format>
        <dc:type
           rdf:resource="http://purl.org/dc/dcmitype/StillImage" />
        <dc:title></dc:title>
      </cc:Work>
    </rdf:RDF>
  </metadata>
  <g
     inkscape:label="Calque 1"
     inkscape:groupmode="layer"
     id="layer1"
     transform="translate(-31.315119,-80.647956)">
    <g
       id="g20"
       transform="matrix(0.35277777,0,0,-0.35277777,85.619087,100.97398)">
      <path
         d="m 0,0 c -0.273,2.111 -1.033,5.241 -3.149,8.732 -2.105,3.454 -5.744,7.185 -10.912,9.58 -5.127,2.43 -11.542,3.592 -18.371,3.007 -6.812,-0.582 -14.126,-2.938 -20.619,-7.543 -1.211,-0.844 -2.363,-1.8 -3.48,-2.809 -5.375,2.891 -11.11,4.873 -16.871,6.04 -8.093,1.622 -16.027,1.783 -23.391,1.774 -3.728,0.017 -7.328,-0.18 -10.729,-0.336 -3.407,-0.128 -6.647,-0.247 -9.699,-0.143 -3.055,0.095 -5.909,0.429 -8.474,1.007 -2.572,0.619 -4.945,1.494 -7.029,2.597 -2.077,1.12 -3.88,2.412 -5.444,3.745 -1.505,1.391 -2.782,2.802 -3.798,4.195 -2.038,2.77 -3.105,5.429 -3.665,7.162 -0.337,0.849 -0.479,1.674 -0.626,2.153 -0.131,0.502 -0.198,0.761 -0.198,0.761 -0.105,0.403 -0.475,0.696 -0.909,0.687 -0.508,-0.011 -0.91,-0.431 -0.899,-0.939 0,0 0.006,-0.267 0.017,-0.786 0.043,-0.534 -0.049,-1.254 0.137,-2.335 0.241,-2.15 0.841,-5.234 2.775,-8.791 1.874,-3.537 5.12,-7.481 9.975,-10.445 4.769,-3.05 11.298,-4.73 17.927,-4.856 6.674,-0.28 13.633,0.532 20.777,0.896 7.242,0.342 14.84,0.523 22.498,-0.625 5.017,-0.72 10.09,-2.244 14.827,-4.561 -3.603,-4.026 -6.477,-8.944 -8.194,-14.477 l -0.419,-1.44 -0.236,-0.849 -0.194,-0.845 c -0.234,-1.136 -0.41,-2.293 -0.488,-3.472 -0.142,-2.356 0.037,-4.802 0.714,-7.211 0.324,-1.205 0.802,-2.391 1.389,-3.528 0.269,-0.549 0.664,-1.176 1.044,-1.764 l 0.455,-0.63 0.113,-0.158 0.232,-0.289 0.324,-0.384 c 1.748,-2.036 3.924,-3.535 6.307,-4.544 4.678,-2.04 10.857,-2.021 15.434,1.653 2.173,1.732 3.733,3.995 4.719,6.366 0.244,0.597 0.453,1.203 0.634,1.814 0.189,0.63 0.358,1.349 0.44,1.804 0.231,1.304 0.33,2.442 0.371,3.686 0.148,4.92 -1.566,9.707 -4.141,13.504 -1.686,2.55 -3.715,4.734 -5.888,6.699 -0.891,-0.891 -1.751,-1.805 -2.562,-2.744 1.906,-1.824 3.572,-3.874 4.767,-6.146 1.811,-3.447 2.417,-7.273 1.848,-10.868 -0.509,-3.579 -2.055,-6.967 -4.413,-8.737 -0.553,-0.442 -1.263,-0.837 -1.816,-1.043 -0.23,-0.08 -0.538,-0.207 -0.703,-0.247 -0.133,-0.023 -0.264,-0.052 -0.393,-0.089 -0.308,-0.046 -0.696,-0.144 -1.062,-0.146 -1.48,-0.118 -3.095,0.181 -4.561,0.811 -3.017,1.254 -5.046,3.682 -5.912,6.83 -0.435,1.55 -0.568,3.231 -0.464,4.917 0.061,0.843 0.168,1.689 0.331,2.526 l 0.135,0.625 0.014,0.064 0.048,0.176 0.099,0.362 0.395,1.447 c 0.964,3.348 2.615,6.663 4.593,9.482 4.014,5.761 9.882,10.05 16.456,12.455 2.601,0.951 5.309,1.605 8.058,1.939 5.88,0.714 11.4,-0.111 15.721,-1.98 4.341,-1.877 7.442,-4.7 9.483,-7.393 2.08,-2.693 3.15,-5.254 3.773,-7.007 0.584,-1.784 0.787,-2.794 0.787,-2.794 0.098,-0.486 0.506,-0.873 1.026,-0.919 0.632,-0.057 1.191,0.41 1.248,1.043 l 0.008,0.09 c 0,0 0.101,1.13 -0.19,3.244"
         style="fill:#80bc48;fill-opacity:1;fill-rule:nonzero;stroke:none"
         id="path22"
         inkscape:connector-curvature="0" />
    </g>
    <g
       id="g24"
       transform="matrix(0.35277777,0,0,-0.35277777,70.211413,119.01616)">
      <path
         d="m 0,0 c -1.748,3.472 -4.432,6.491 -7.666,8.644 -3.236,2.113 -6.964,3.565 -10.725,3.879 l -0.702,0.1 c -0.146,0.016 -0.168,0.035 -0.417,0.047 l -0.316,0.016 -0.632,0.032 -0.389,0.009 -0.158,-0.005 -0.316,-0.009 c -0.888,-0.053 -1.578,0.017 -2.655,-0.151 -2.05,-0.228 -3.859,-0.624 -5.653,-1.283 -3.575,-1.264 -6.881,-3.328 -9.519,-6.127 -2.598,-2.82 -4.486,-6.446 -5.021,-10.367 -0.153,-0.971 -0.114,-1.967 -0.156,-2.946 0.121,-0.97 0.163,-1.961 0.381,-2.906 0.277,-0.949 0.407,-1.856 0.83,-2.827 0.237,-0.655 0.856,-1.921 1.39,-2.666 2.232,-3.369 5.781,-5.638 9.566,-6.479 1.897,-0.418 3.859,-0.496 5.768,-0.237 0.982,0.128 1.838,0.33 2.867,0.648 0.687,0.21 1.914,0.76 2.685,1.262 3.437,2.112 5.643,6.302 5.016,10.381 -0.077,0.502 -0.172,0.999 -0.329,1.478 l -0.106,0.362 c -0.095,0.289 -0.096,0.248 -0.149,0.388 -0.086,0.202 -0.138,0.361 -0.294,0.651 -0.533,1.052 -1.167,1.807 -1.963,2.505 -1.57,1.355 -3.582,2.069 -5.581,2.108 -1.965,0.019 -4.116,-0.527 -5.61,-2.092 -1.51,-1.49 -2.083,-3.903 -1.352,-5.888 l 0.085,-0.139 c 0.706,-1.721 2.393,-2.936 4.367,-2.936 2.609,0 4.723,2.115 4.723,4.723 0,1.293 -0.521,2.463 -1.364,3.316 1.005,-0.24 1.941,-0.726 2.654,-1.417 0.461,-0.427 0.873,-1.033 1.078,-1.498 0.055,-0.077 0.133,-0.321 0.202,-0.511 l 0.068,-0.206 0.056,-0.249 c 0.094,-0.329 0.135,-0.664 0.171,-0.999 0.27,-2.698 -1.301,-5.358 -3.674,-6.668 -2.416,-1.315 -5.537,-1.466 -8.288,-0.738 -2.761,0.73 -5.235,2.45 -6.66,4.775 -0.205,0.293 -0.334,0.566 -0.458,0.827 -0.067,0.143 -0.135,0.236 -0.209,0.418 l -0.218,0.593 c -0.253,0.581 -0.336,1.372 -0.526,2.041 -0.144,0.7 -0.129,1.412 -0.218,2.113 0.074,0.7 0.043,1.408 0.18,2.096 0.473,2.766 1.89,5.355 3.912,7.436 2.06,2.055 4.678,3.59 7.483,4.485 1.381,0.478 2.911,0.731 4.21,0.85 0.591,0.124 1.601,0.042 2.395,0.066 h 0.316 0.064 l 0.021,-0.002 0.63,-0.05 0.316,-0.026 0.209,-0.039 0.547,-0.101 c 2.98,-0.297 5.707,-1.467 8.066,-3.039 2.345,-1.612 4.267,-3.82 5.523,-6.401 1.233,-2.59 1.831,-5.49 1.761,-8.366 -0.072,-2.871 -0.784,-5.741 -2.084,-8.27 -0.349,-0.554 -0.682,-1.113 -1.003,-1.684 -0.39,-0.599 -1.029,-1.29 -1.532,-1.93 l -0.401,-0.49 -0.03,-0.037 -0.02,-0.019 -0.197,-0.197 c -0.268,-0.261 -0.519,-0.535 -0.798,-0.786 -0.548,-0.511 -1.118,-1.002 -1.712,-1.47 -4.763,-3.743 -10.802,-6.065 -16.946,-7.042 l -0.048,-0.004 c -7.131,-1.177 -14.095,-3.838 -19.948,-8.461 -0.715,-0.569 -1.44,-1.197 -2.167,-1.885 -0.361,-0.334 -0.61,-0.61 -0.921,-0.917 l -0.222,-0.225 -0.056,-0.057 -0.087,-0.089 -0.029,-0.035 -0.115,-0.14 -0.46,-0.56 c -0.598,-0.758 -1.251,-1.477 -1.787,-2.28 l -1.495,-2.489 c -1.76,-3.452 -2.71,-7.297 -2.727,-11.149 -0.029,-3.848 0.831,-7.704 2.559,-11.172 1.746,-3.459 4.424,-6.464 7.649,-8.604 l 1.205,-0.813 1.298,-0.639 c 0.892,-0.393 1.681,-0.898 2.688,-1.151 l 2.896,-0.858 2.503,-0.372 c 3.952,-0.511 7.688,-0.008 11.284,1.238 3.557,1.262 6.843,3.32 9.461,6.105 2.579,2.806 4.448,6.409 4.974,10.297 0.15,0.964 0.11,1.949 0.151,2.922 -0.116,0.993 -0.2,2.139 -0.406,2.99 l -0.325,1.223 -0.163,0.612 -0.066,0.231 -0.035,0.087 -0.068,0.175 -0.139,0.349 c -0.355,0.934 -0.825,1.828 -1.384,2.649 -2.211,3.328 -5.725,5.574 -9.472,6.395 -1.892,0.41 -3.791,0.489 -5.737,0.224 -0.478,-0.08 -1.049,-0.144 -1.416,-0.259 l -0.613,-0.156 -0.307,-0.078 c -0.266,-0.065 -0.275,-0.088 -0.426,-0.134 -0.942,-0.3 -1.841,-0.738 -2.686,-1.26 -3.378,-2.091 -5.537,-6.185 -4.912,-10.215 0.085,-0.547 0.193,-1.056 0.318,-1.416 l 0.09,-0.304 c 0.071,-0.249 0.103,-0.276 0.157,-0.425 0.1,-0.239 0.188,-0.482 0.319,-0.706 0.472,-0.919 1.127,-1.73 1.893,-2.387 1.535,-1.32 3.502,-2.016 5.456,-2.049 0.966,-0.018 2.01,0.146 2.879,0.434 0.959,0.326 1.866,0.856 2.568,1.601 0.81,0.789 1.297,1.874 1.485,2.993 0.071,0.324 0.112,0.658 0.112,1.003 l -0.01,0.106 -0.022,0.219 c -0.029,0.412 -0.109,0.807 -0.236,1.183 l -0.023,0.116 -0.036,0.094 -0.014,0.023 c -0.694,1.744 -2.389,2.981 -4.381,2.981 -2.609,0 -4.723,-2.114 -4.723,-4.722 0,-1.356 0.579,-2.569 1.494,-3.431 -1.038,0.25 -2.004,0.753 -2.743,1.469 -1.012,0.971 -1.487,2.12 -1.637,3.609 -0.272,2.747 1.346,5.503 3.777,6.833 0.609,0.33 1.251,0.606 1.928,0.78 l 0.179,0.052 0.31,0.062 0.621,0.124 c 0.448,0.11 0.725,0.086 1.08,0.134 1.405,0.114 2.921,-0.018 4.307,-0.404 2.797,-0.748 5.306,-2.492 6.752,-4.858 0.371,-0.581 0.673,-1.206 0.891,-1.855 l 0.089,-0.242 0.045,-0.12 0.005,-0.012 0.136,-0.585 0.285,-1.233 c 0.156,-0.793 0.098,-1.349 0.194,-2.027 -0.076,-0.707 -0.047,-1.424 -0.186,-2.12 -0.481,-2.799 -1.918,-5.412 -3.96,-7.507 -2.08,-2.068 -4.716,-3.61 -7.54,-4.507 -2.785,-0.895 -5.943,-1.159 -8.662,-0.704 l -2.493,0.436 -1.93,0.659 c -0.648,0.141 -1.288,0.59 -1.935,0.879 l -0.969,0.482 -0.874,0.629 c -2.355,1.625 -4.282,3.847 -5.54,6.441 -1.234,2.603 -1.83,5.515 -1.755,8.401 0.078,2.886 0.797,5.744 2.113,8.301 l 1.124,1.841 c 0.4,0.596 0.908,1.117 1.348,1.685 l 0.34,0.42 0.085,0.106 0.013,0.017 0.032,0.032 0.223,0.223 c 0.291,0.284 0.614,0.629 0.878,0.862 0.505,0.465 1.056,0.94 1.664,1.418 4.774,3.739 10.818,6.055 16.965,7.019 l 0.047,0.004 c 7.134,1.162 14.103,3.819 19.967,8.437 0.729,0.579 1.435,1.191 2.119,1.833 0.346,0.316 0.667,0.663 1.001,0.993 l 0.248,0.252 0.062,0.062 0.205,0.234 0.1,0.122 0.399,0.491 c 0.535,0.687 1.057,1.236 1.603,2.035 0.552,0.872 1.093,1.757 1.616,2.647 1.776,3.48 2.732,7.313 2.757,11.179 C 2.588,-7.349 1.729,-3.482 0,0"
         style="fill:#e72b38;fill-opacity:1;fill-rule:nonzero;stroke:none"
         id="path26"
         inkscape:connector-curvature="0" />
    </g>
    <g
       id="g28"
       transform="matrix(0.35277777,0,0,-0.35277777,54.656593,126.47342)">
      <path
         d="m 0,0 c -0.241,-0.234 -0.471,-0.471 -0.725,-0.703 -1.956,-1.736 -4.331,-3.408 -6.963,-4.639 -2.749,-1.325 -5.682,-2.112 -8.786,-2.309 -3.078,-0.137 -6.224,0.466 -8.945,1.931 -1.346,0.705 -2.671,1.727 -3.634,2.667 l -0.952,1.057 c -0.155,0.146 -0.439,0.573 -0.657,0.843 -0.452,0.623 -0.832,1.288 -1.182,1.965 -1.393,2.717 -1.724,5.883 -0.92,8.71 0.191,0.71 0.473,1.391 0.788,2.056 0.144,0.35 0.315,0.58 0.46,0.884 0.127,0.273 0.486,0.73 0.716,1.084 0.724,1.032 1.818,2.058 3.008,2.725 2.409,1.38 5.334,1.825 7.89,1.259 0.623,-0.122 1.308,-0.348 1.781,-0.551 l 0.399,-0.157 0.517,-0.284 0.513,-0.278 0.262,-0.169 c 0.953,-0.6 1.656,-1.443 2.12,-2.366 0.924,-1.843 0.682,-4.1 -0.144,-5.593 -0.623,-1.155 -1.437,-1.868 -2.308,-2.341 0.373,0.762 0.531,1.64 0.404,2.543 -0.337,2.408 -2.562,4.087 -4.97,3.75 -2.407,-0.337 -4.086,-2.562 -3.749,-4.97 0.189,-1.352 0.985,-2.458 2.063,-3.122 0.192,-0.137 0.482,-0.325 0.954,-0.574 0.907,-0.441 2.4,-0.994 4.378,-0.813 0.98,0.09 2.07,0.363 3.16,0.931 0.546,0.28 1.09,0.637 1.595,1.088 0.497,0.407 1.025,1.066 1.339,1.467 0.895,1.229 1.525,2.571 1.819,4.195 0.284,1.598 0.183,3.392 -0.449,5.104 -0.624,1.709 -1.741,3.35 -3.271,4.577 -0.233,0.179 -0.288,0.254 -0.673,0.516 l -0.488,0.321 -0.494,0.321 -0.671,0.357 c -0.947,0.501 -1.792,0.829 -2.749,1.111 -3.749,1.121 -8.165,0.879 -12.045,-1.152 -1.956,-1.015 -3.684,-2.397 -5.165,-4.301 -0.289,-0.402 -0.529,-0.653 -0.861,-1.181 -0.308,-0.5 -0.676,-1.03 -0.916,-1.525 -0.521,-0.991 -0.955,-2.041 -1.279,-3.131 -1.337,-4.364 -0.877,-9.284 1.137,-13.377 0.516,-1.016 1.106,-1.991 1.777,-2.903 0.378,-0.469 0.612,-0.846 1.117,-1.384 l 0.963,-1.047 c 1.737,-1.723 3.481,-2.959 5.45,-3.994 3.908,-2.098 8.341,-2.612 12.35,-2.296 2.013,0.207 3.957,0.594 5.778,1.2 0.893,0.341 1.796,0.632 2.63,1.043 l 1.317,0.618 1.085,0.59 c 3.206,1.735 5.751,3.933 7.851,6.197 0.199,0.213 0.368,0.431 0.556,0.647 C 2.01,-2.364 0.948,-1.225 0,0"
         style="fill:#f7a506;fill-opacity:1;fill-rule:nonzero;stroke:none"
         id="path30"
         inkscape:connector-curvature="0" />
    </g>
    <g
       id="g32"
       transform="matrix(0.35277777,0,0,-0.35277777,55.400038,109.65294)">
      <path
         d="M 0,0 0.043,-0.078 0.139,-0.23 c 0.255,-0.361 0.654,-1.111 0.956,-1.718 0.309,-0.658 0.613,-1.326 0.886,-2.022 0.573,-1.375 1.024,-2.826 1.446,-4.289 0.39,-1.476 0.733,-2.972 0.995,-4.494 0.041,-0.183 0.063,-0.37 0.094,-0.555 1.338,0.839 2.766,1.561 4.264,2.16 -0.169,1.339 -0.377,2.676 -0.639,4.012 -0.36,1.654 -0.758,3.307 -1.314,4.943 C 6.571,-1.371 6.242,-0.561 5.905,0.252 5.52,1.096 5.226,1.801 4.614,2.795 L 4.753,2.566 C 3.476,5.135 1.869,7.84 0.01,10.214 c -1.856,2.415 -4.037,4.597 -6.445,6.512 -2.418,1.903 -5.083,3.517 -7.917,4.769 -1.433,0.63 -2.83,1.171 -4.401,1.604 -0.791,0.229 -1.565,0.438 -2.223,0.565 l -1.036,0.226 c -0.552,0.108 -0.821,0.132 -1.245,0.202 -6.159,0.934 -12.878,0.178 -18.522,-3.192 -2.805,-1.657 -5.295,-3.902 -7.214,-6.548 -0.488,-0.683 -0.951,-1.45 -1.405,-2.174 l -0.488,-0.942 -0.244,-0.471 -0.122,-0.236 -0.125,-0.253 -0.061,-0.142 c -0.673,-1.505 -1.182,-3.084 -1.526,-4.707 -0.627,-3.257 -0.49,-6.684 0.5,-9.884 1.01,-3.215 2.758,-6.086 5.274,-8.441 0.683,-0.682 1.176,-1.008 1.749,-1.471 0.866,-0.601 1.445,-1.008 2.247,-1.4 1.494,-0.801 3.107,-1.348 4.748,-1.646 3.278,-0.636 6.681,-0.297 9.743,0.893 3.058,1.223 5.762,3.259 7.644,6.094 1.901,2.903 2.293,6.767 0.95,9.907 -0.665,1.596 -1.602,2.919 -2.946,4.1 -0.308,0.264 -0.571,0.442 -0.859,0.668 -0.463,0.311 -0.736,0.502 -1.147,0.695 -0.749,0.399 -1.561,0.65 -2.374,0.817 -2.532,0.531 -5.21,-0.166 -7.178,-1.648 -1.715,-0.926 -2.787,-2.824 -2.55,-4.879 0.312,-2.694 2.749,-4.626 5.443,-4.315 2.695,0.311 4.627,2.748 4.316,5.443 -0.134,1.151 -0.669,2.147 -1.433,2.905 0.26,-0.045 0.519,-0.099 0.77,-0.172 0.556,-0.176 1.095,-0.398 1.566,-0.718 0.227,-0.119 0.509,-0.378 0.629,-0.462 0.248,-0.236 0.548,-0.489 0.753,-0.712 0.704,-0.77 1.369,-1.867 1.667,-2.932 0.677,-2.185 0.137,-4.537 -1.164,-6.293 -1.391,-1.793 -3.496,-3.2 -5.751,-3.901 -2.257,-0.714 -4.717,-0.844 -6.97,-0.267 -1.131,0.264 -2.21,0.697 -3.178,1.291 -0.47,0.233 -1.019,0.698 -1.315,0.898 -0.503,0.453 -1.159,0.965 -1.444,1.32 -1.567,1.567 -2.818,3.714 -3.41,5.923 -0.616,2.237 -0.622,4.624 -0.125,6.912 0.261,1.143 0.636,2.263 1.131,3.338 l 0.911,1.724 0.933,1.368 c 1.432,1.915 3.249,3.512 5.328,4.71 2.078,1.193 4.399,2.032 6.839,2.416 2.435,0.399 4.963,0.398 7.458,0.034 l 0.851,-0.123 1.039,-0.219 c 0.734,-0.137 1.323,-0.304 1.892,-0.468 1.157,-0.319 2.427,-0.745 3.594,-1.229 2.37,-0.971 4.621,-2.248 6.694,-3.789 2.073,-1.545 3.942,-3.37 5.648,-5.351 C -2.771,4.549 -1.361,2.436 0,0"
         style="fill:#f5a8a9;fill-opacity:1;fill-rule:nonzero;stroke:none"
         id="path34"
         inkscape:connector-curvature="0" />
    </g>
    <g
       id="g36"
       transform="matrix(0.35277777,0,0,-0.35277777,80.267236,109.56853)">
      <path
         d="m 0,0 7.959,-19.26 c 0.259,-0.547 0.333,-0.888 0.37,-1.571 0.037,0.683 0.111,0.888 0.407,1.605 L 16.621,0 H 19.62 L 9.106,-24.622 H 7.515 L -3.035,0 Z"
         style="fill:#0d0d0a;fill-opacity:1;fill-rule:nonzero;stroke:none"
         id="path38"
         inkscape:connector-curvature="0" />
    </g>
    <g
       id="g40"
       transform="matrix(0.35277777,0,0,-0.35277777,80.267236,109.56853)">
      <path
         d="m 0,0 -0.236,-0.097 7.962,-19.267 0.003,-0.005 c 0.246,-0.528 0.306,-0.802 0.345,-1.476 h 0.51 c 0.04,0.668 0.092,0.795 0.388,1.522 l 7.82,19.068 h 2.442 L 8.938,-24.367 H 7.683 L -2.649,-0.255 H 0 V 0 L -0.236,-0.097 0,0 V 0.255 H -3.422 L 7.346,-24.876 H 9.275 L 20.006,0.255 H 16.45 L 8.5,-19.129 c -0.295,-0.708 -0.391,-0.99 -0.426,-1.688 l 0.255,-0.014 0.255,0.014 c -0.035,0.692 -0.124,1.101 -0.395,1.666 L 7.959,-19.26 8.194,-19.163 0.17,0.255 H 0 Z"
         style="fill:#0d0d0a;fill-opacity:1;fill-rule:nonzero;stroke:none"
         id="path42"
         inkscape:connector-curvature="0" />
    </g>
    <path
       d="m 87.905863,112.49065 h 0.844198 v 5.76404 h -0.844198 z m 0.433564,-1.76318 c 0.316794,0 0.586317,0.22719 0.586317,0.50835 0,0.30304 -0.269523,0.54081 -0.597958,0.54081 -0.328438,0 -0.597959,-0.24871 -0.597959,-0.54081 0,-0.28116 0.281163,-0.50835 0.6096,-0.50835"
       style="fill:#0d0d0a;fill-opacity:1;fill-rule:nonzero;stroke:none;stroke-width:0.35277775"
       id="path44"
       inkscape:connector-curvature="0" />
    <g
       id="g46"
       transform="matrix(0.35277777,0,0,-0.35277777,87.905722,112.49048)">
      <path
         d="M 0,0 V -0.255 H 2.138 V -16.084 H 0.255 V 0 H 0 V -0.255 0 H -0.255 V -16.594 H 2.647 V 0.255 H -0.255 V 0 Z M 1.229,4.997 V 4.742 C 1.617,4.743 1.975,4.602 2.231,4.382 2.487,4.161 2.636,3.871 2.637,3.556 2.636,3.204 2.482,2.891 2.223,2.658 1.963,2.425 1.6,2.278 1.196,2.278 c -0.4,0 -0.764,0.153 -1.025,0.39 -0.261,0.238 -0.415,0.554 -0.415,0.888 0,0.311 0.154,0.6 0.422,0.823 C 0.446,4.6 0.823,4.743 1.229,4.742 V 4.997 5.252 C 0.705,5.252 0.218,5.072 -0.146,4.772 -0.509,4.474 -0.754,4.042 -0.754,3.556 -0.747,2.565 0.139,1.77 1.196,1.769 2.246,1.77 3.143,2.536 3.146,3.556 3.138,4.528 2.242,5.252 1.229,5.252 Z"
         style="fill:#0d0d0a;fill-opacity:1;fill-rule:nonzero;stroke:none"
         id="path48"
         inkscape:connector-curvature="0" />
    </g>
    <g
       id="g50"
       transform="matrix(0.35277777,0,0,-0.35277777,90.8251,112.49048)">
      <path
         d="m 0,0 h 2.326 v -2.268 c 1.596,1.778 3.124,2.514 5.185,2.514 2.359,0 4.519,-1.196 5.384,-3.036 0.332,-0.705 0.464,-1.593 0.464,-2.636 v -10.913 h -2.326 v 10.607 c 0,2.575 -1.462,4.077 -3.954,4.077 -1.728,0 -3.157,-0.766 -4.753,-2.483 V -16.339 H 0 Z"
         style="fill:#0d0d0a;fill-opacity:1;fill-rule:nonzero;stroke:none"
         id="path52"
         inkscape:connector-curvature="0" />
    </g>
    <g
       id="g54"
       transform="matrix(0.35277777,0,0,-0.35277777,90.8251,112.49048)">
      <path
         d="m 0,0 v -0.255 h 2.071 v -2.679 l 0.445,0.496 c 1.573,1.741 2.998,2.422 4.995,2.429 2.276,10e-4 4.345,-1.16 5.153,-2.889 0.308,-0.653 0.441,-1.506 0.44,-2.528 v -10.658 h -1.816 v 10.352 c 10e-4,1.334 -0.381,2.426 -1.114,3.181 -0.733,0.756 -1.8,1.152 -3.095,1.151 -1.811,0.004 -3.326,-0.821 -4.94,-2.565 L 2.071,-4.038 V -16.084 H 0.255 V 0 H 0 V -0.255 0 H -0.255 V -16.594 H 2.581 V -4.138 H 2.326 l 0.187,-0.174 c 1.577,1.691 2.92,2.398 4.566,2.402 1.197,-0.001 2.108,-0.357 2.729,-0.996 0.62,-0.639 0.969,-1.585 0.97,-2.826 v -10.862 h 2.836 v 11.168 c 0,1.064 -0.133,1.988 -0.489,2.745 -0.921,1.95 -3.172,3.18 -5.614,3.182 C 5.386,0.508 3.755,-0.284 2.136,-2.098 l 0.19,-0.17 H 2.581 V 0.255 H -0.255 V 0 Z"
         style="fill:#0d0d0a;fill-opacity:1;fill-rule:nonzero;stroke:none"
         id="path56"
         inkscape:connector-curvature="0" />
    </g>
    <g
       id="g58"
       transform="matrix(0.35277777,0,0,-0.35277777,100.57954,113.53935)">
      <path
         d="m 0,0 c -0.365,0.276 -0.698,0.49 -0.897,0.582 -0.898,0.491 -2.094,0.828 -3.158,0.828 -2.027,0 -3.555,-1.165 -3.555,-2.667 0,-1.042 0.731,-1.901 2.127,-2.452 l 2.392,-0.92 c 2.626,-1.012 3.723,-2.268 3.723,-4.2 0,-2.82 -2.394,-4.813 -5.75,-4.813 -0.997,0 -1.994,0.184 -2.958,0.46 -0.697,0.245 -1.097,0.46 -1.96,0.951 v 2.084 c 0.432,-0.307 0.764,-0.521 0.963,-0.674 1.097,-0.614 2.526,-0.981 3.789,-0.981 2.027,0 3.423,1.195 3.423,2.943 0,1.042 -0.764,1.9 -2.194,2.452 l -2.392,0.92 c -2.426,1.011 -3.656,2.329 -3.656,4.199 0,2.514 2.526,4.537 5.65,4.537 1.561,0 2.791,-0.306 4.453,-1.134 z"
         style="fill:#0d0d0a;fill-opacity:1;fill-rule:nonzero;stroke:none"
         id="path60"
         inkscape:connector-curvature="0" />
    </g>
    <g
       id="g62"
       transform="matrix(0.35277777,0,0,-0.35277777,100.57954,113.53935)">
      <path
         d="m 0,0 0.154,0.203 c -0.377,0.284 -0.712,0.502 -0.945,0.611 l -0.106,-0.232 0.122,0.224 c -0.938,0.511 -2.163,0.858 -3.28,0.859 -1.062,0 -2.004,-0.304 -2.691,-0.821 -0.687,-0.516 -1.12,-1.26 -1.119,-2.101 -0.002,-0.581 0.209,-1.124 0.602,-1.577 0.393,-0.454 0.961,-0.826 1.686,-1.112 l 0.002,-10e-4 2.393,-0.92 c 1.292,-0.497 2.185,-1.049 2.746,-1.686 0.56,-0.637 0.81,-1.357 0.813,-2.276 -0.002,-1.337 -0.561,-2.46 -1.525,-3.268 -0.964,-0.806 -2.342,-1.29 -3.97,-1.29 -0.966,0 -1.94,0.179 -2.888,0.45 l -0.07,-0.245 0.084,0.241 c -0.68,0.239 -1.053,0.44 -1.918,0.931 l -0.126,-0.221 h 0.255 v 2.084 h -0.255 l -0.148,-0.208 c 0.436,-0.309 0.772,-0.527 0.955,-0.668 l 0.015,-0.011 0.016,-0.01 c 1.143,-0.636 2.602,-1.012 3.914,-1.013 1.063,0 1.981,0.314 2.638,0.877 0.657,0.563 1.041,1.379 1.04,2.321 0.001,0.584 -0.22,1.127 -0.626,1.579 -0.406,0.454 -0.989,0.824 -1.731,1.111 l -2.393,0.92 -0.091,-0.238 0.098,0.235 c -1.192,0.496 -2.072,1.063 -2.645,1.712 -0.572,0.65 -0.852,1.373 -0.854,2.252 0.001,1.169 0.585,2.23 1.558,3.013 0.972,0.78 2.33,1.27 3.837,1.269 1.527,-0.002 2.697,-0.291 4.339,-1.107 L 0,2.115 H -0.255 V 0 H 0 L 0.154,0.203 0,0 h 0.255 v 2.273 l -0.141,0.07 c -1.682,0.84 -2.972,1.163 -4.567,1.161 -1.617,0 -3.084,-0.522 -4.156,-1.382 -1.071,-0.857 -1.749,-2.065 -1.749,-3.41 -0.002,-0.991 0.334,-1.861 0.983,-2.59 0.648,-0.731 1.595,-1.329 2.83,-1.845 l 0.003,-0.001 2.396,-0.921 c 0.688,-0.265 1.2,-0.6 1.534,-0.974 0.333,-0.376 0.494,-0.783 0.496,-1.24 -0.002,-0.806 -0.316,-1.462 -0.863,-1.934 -0.547,-0.47 -1.341,-0.754 -2.305,-0.754 -1.214,-0.002 -2.612,0.358 -3.665,0.948 l -0.124,-0.222 0.155,0.202 c -0.215,0.165 -0.543,0.376 -0.971,0.68 l -0.402,0.286 v -2.727 l 0.129,-0.073 c 0.861,-0.49 1.287,-0.718 2.001,-0.969 l 0.006,-0.002 0.009,-0.003 c 0.979,-0.28 1.999,-0.469 3.028,-0.469 1.728,0 3.225,0.512 4.297,1.408 1.072,0.893 1.709,2.176 1.708,3.659 0.002,1.013 -0.296,1.887 -0.941,2.614 -0.644,0.727 -1.611,1.31 -2.945,1.824 l -2.393,0.92 0.002,-10e-4 c -0.67,0.264 -1.166,0.598 -1.487,0.971 -0.322,0.375 -0.477,0.783 -0.478,1.244 0.001,0.662 0.331,1.251 0.916,1.693 0.583,0.441 1.419,0.72 2.384,0.719 1.01,0.002 2.178,-0.326 3.035,-0.797 l 0.008,-0.004 0.008,-0.003 c 0.165,-0.075 0.496,-0.286 0.85,-0.554 L 0.255,-0.512 V 0 Z"
         style="fill:#0d0d0a;fill-opacity:1;fill-rule:nonzero;stroke:none"
         id="path64"
         inkscape:connector-curvature="0" />
    </g>
    <g
       id="g66"
       transform="matrix(0.35277777,0,0,-0.35277777,109.61912,113.39877)">
      <path
         d="m 0,0 c -1.23,0.766 -2.194,1.012 -3.59,1.012 -3.722,0 -6.514,-2.882 -6.514,-6.744 0,-3.771 2.726,-6.438 6.547,-6.438 1.396,0 2.293,0.214 3.557,0.92 z M 0,8.338 H 2.359 L 2.326,-13.764 H 0 v 0.858 c -1.363,-0.827 -2.427,-1.134 -4.221,-1.134 -4.919,0 -8.441,3.433 -8.441,8.154 0,4.936 3.755,8.737 8.674,8.737 1.661,0 2.625,-0.246 3.988,-1.012 z"
         style="fill:#0d0d0a;fill-opacity:1;fill-rule:nonzero;stroke:none"
         id="path68"
         inkscape:connector-curvature="0" />
    </g>
    <g
       id="g70"
       transform="matrix(0.35277777,0,0,-0.35277777,109.61912,113.39877)">
      <path
         d="m 0,0 0.135,0.216 c -1.258,0.788 -2.301,1.055 -3.725,1.051 -1.927,0 -3.626,-0.749 -4.836,-2.002 -1.211,-1.252 -1.933,-3.005 -1.933,-4.997 0,-1.947 0.707,-3.628 1.917,-4.815 1.21,-1.188 2.916,-1.878 4.885,-1.878 1.42,-0.004 2.395,0.23 3.681,0.952 L 0.255,-11.4 V 0.142 L 0.135,0.216 0,0 H -0.255 V -11.25 H 0 l -0.124,0.222 c -1.242,-0.688 -2.061,-0.883 -3.433,-0.887 -1.851,10e-4 -3.419,0.644 -4.527,1.732 -1.109,1.089 -1.764,2.627 -1.765,4.451 0.008,3.736 2.676,6.483 6.259,6.489 1.367,-0.004 2.252,-0.229 3.455,-0.973 L 0,0 H -0.255 Z M 0,8.338 V 8.083 H 2.104 L 2.072,-13.509 H 0.255 v 0.603 0.453 l -0.387,-0.235 c -1.34,-0.808 -2.321,-1.093 -4.089,-1.097 -4.797,0.01 -8.177,3.313 -8.186,7.899 0.005,4.803 3.636,8.477 8.419,8.482 1.639,-0.005 2.521,-0.23 3.863,-0.979 L 0.255,1.403 V 8.338 H 0 V 8.083 8.338 H -0.255 V 1.839 H 0 l 0.125,0.223 c -1.385,0.783 -2.43,1.048 -4.113,1.044 -2.526,0 -4.762,-0.978 -6.363,-2.593 -1.601,-1.615 -2.566,-3.866 -2.566,-6.399 -10e-4,-2.424 0.907,-4.534 2.454,-6.03 1.545,-1.498 3.724,-2.38 6.242,-2.379 1.82,-0.004 2.966,0.324 4.353,1.171 L 0,-12.906 h -0.255 v -0.858 -0.255 H 2.581 L 2.615,8.593 h -2.87 V 8.338 Z"
         style="fill:#0d0d0a;fill-opacity:1;fill-rule:nonzero;stroke:none"
         id="path72"
         inkscape:connector-curvature="0" />
    </g>
    <g
       id="g74"
       transform="matrix(0.35277777,0,0,-0.35277777,112.58189,114.68571)">
      <path
         d="M 0,0 H 10.137 C 10.036,2.851 8.076,4.721 5.317,4.721 2.626,4.721 0.599,2.943 0,0 m -0.1,-1.717 c 0.166,-4.2 2.559,-6.713 6.282,-6.713 1.13,0 2.392,0.276 3.555,0.736 0.798,0.306 1.23,0.551 2.227,1.226 v -1.931 c -2.094,-1.35 -4.055,-1.993 -6.248,-1.993 -4.985,0 -8.308,3.403 -8.308,8.553 0,4.843 3.323,8.338 7.876,8.338 4.487,0 7.146,-2.943 7.146,-7.878 v -0.338 z"
         style="fill:#0d0d0a;fill-opacity:1;fill-rule:nonzero;stroke:none"
         id="path76"
         inkscape:connector-curvature="0" />
    </g>
    <g
       id="g78"
       transform="matrix(0.35277777,0,0,-0.35277777,112.58189,114.68571)">
      <path
         d="m 0,0 v -0.255 h 10.401 l -0.01,0.264 C 10.34,1.49 9.8,2.739 8.901,3.612 8.004,4.486 6.754,4.977 5.317,4.976 2.505,4.984 0.356,3.085 -0.25,0.051 L -0.312,-0.255 H 0 V 0 L 0.25,-0.051 C 0.841,2.801 2.747,4.457 5.317,4.466 6.64,4.465 7.749,4.021 8.546,3.247 9.342,2.472 9.833,1.361 9.882,-0.009 L 10.137,0 V 0.255 H 0 V 0 l 0.25,-0.051 z m -0.1,-1.717 -0.254,-0.01 c 0.084,-2.145 0.74,-3.888 1.875,-5.096 1.135,-1.209 2.743,-1.864 4.661,-1.862 1.171,0 2.459,0.284 3.649,0.754 L 9.829,-7.932 c 0.813,0.311 1.28,0.577 2.278,1.253 l -0.143,0.211 h -0.255 v -1.931 h 0.255 l -0.138,0.214 c -2.066,-1.329 -3.968,-1.951 -6.11,-1.952 -2.435,0.001 -4.438,0.827 -5.841,2.268 -1.401,1.441 -2.211,3.509 -2.212,6.03 0.01,4.725 3.208,8.075 7.621,8.083 2.189,-0.002 3.893,-0.712 5.066,-2.005 1.173,-1.293 1.824,-3.195 1.825,-5.618 v -0.083 h -12.54 l 0.011,-0.265 0.254,0.01 v -0.255 h 12.785 v 0.593 c 0,2.511 -0.678,4.549 -1.957,5.96 C 9.45,5.994 7.581,6.755 5.284,6.753 2.942,6.754 0.901,5.851 -0.546,4.321 -1.994,2.792 -2.847,0.64 -2.847,-1.839 c -10e-4,-2.629 0.851,-4.838 2.357,-6.386 1.505,-1.548 3.656,-2.423 6.206,-2.422 2.244,-10e-4 4.264,0.664 6.386,2.033 l 0.117,0.076 v 2.55 L 11.821,-6.257 C 10.824,-6.93 10.428,-7.155 9.646,-7.456 L 9.644,-7.457 C 8.507,-7.907 7.27,-8.176 6.182,-8.175 4.377,-8.173 2.927,-7.571 1.893,-6.474 0.86,-5.375 0.237,-3.762 0.155,-1.707 L -0.1,-1.717 v -0.255 z"
         style="fill:#0d0d0a;fill-opacity:1;fill-rule:nonzero;stroke:none"
         id="path80"
         inkscape:connector-curvature="0" />
    </g>
    <g
       id="g82"
       transform="matrix(0.35277777,0,0,-0.35277777,81.212222,133.32797)">
      <path
         d="m 0,0 h 7.917 c 4.772,0 8.135,2.951 8.135,7.153 0,4.501 -3.579,7.303 -9.274,7.303 H 0 Z m 0,17.307 h 4.989 c 4.663,0 7.755,2.651 7.755,6.602 0,3.751 -2.875,6.303 -7.05,6.303 H 0 Z M -4.122,33.162 H 6.453 c 6.073,0 10.467,-3.751 10.467,-8.852 0,-3.452 -1.79,-5.903 -5.694,-7.704 5.802,-1.1 9.002,-4.551 9.002,-9.553 0,-6.052 -4.718,-9.953 -12.04,-9.953 h -12.31 z"
         style="fill:#0d0d0a;fill-opacity:1;fill-rule:nonzero;stroke:none"
         id="path84"
         inkscape:connector-curvature="0" />
    </g>
    <g
       id="g86"
       transform="matrix(0.35277777,0,0,-0.35277777,81.212222,133.32797)">
      <path
         d="m 0,0 v -0.255 h 7.917 c 2.438,0 4.535,0.755 6.025,2.064 1.491,1.309 2.366,3.175 2.365,5.344 0.003,2.318 -0.932,4.233 -2.599,5.54 -1.666,1.309 -4.042,2.018 -6.93,2.018 H -0.255 V -0.255 H 0 V 0 h 0.255 v 14.201 h 6.523 c 2.807,0 5.067,-0.691 6.615,-1.909 1.546,-1.219 2.401,-2.956 2.404,-5.139 C 15.795,5.121 14.989,3.41 13.606,2.192 12.222,0.976 10.251,0.255 7.917,0.255 H 0 V 0 h 0.255 z m 0,17.307 v -0.255 h 4.989 c 2.379,0 4.38,0.676 5.792,1.88 1.412,1.203 2.22,2.935 2.218,4.977 0.002,1.941 -0.749,3.595 -2.045,4.748 -1.294,1.155 -3.121,1.81 -5.26,1.81 H -0.255 V 17.052 H 0 v 0.255 h 0.255 v 12.65 h 5.439 c 2.036,0 3.734,-0.621 4.921,-1.68 1.186,-1.06 1.873,-2.557 1.874,-4.368 C 12.487,22 11.749,20.431 10.45,19.32 9.15,18.211 7.273,17.562 4.989,17.562 H 0 V 17.307 H 0.255 Z M -4.122,33.162 V 32.907 H 6.453 c 5.974,-0.01 10.21,-3.659 10.212,-8.597 -10e-4,-1.683 -0.432,-3.095 -1.333,-4.32 -0.902,-1.223 -2.287,-2.264 -4.213,-3.152 l -0.723,-0.334 0.782,-0.148 c 2.863,-0.543 5.06,-1.661 6.539,-3.238 C 19.195,11.54 19.971,9.5 19.973,7.053 19.97,4.093 18.827,1.69 16.791,0.003 14.754,-1.682 11.805,-2.645 8.188,-2.645 H -3.867 v 35.807 h -0.255 v -0.255 0.255 H -4.377 V -3.155 H 8.188 c 3.705,0 6.776,0.987 8.928,2.765 2.153,1.778 3.369,4.351 3.366,7.443 0.002,2.554 -0.822,4.741 -2.394,6.414 -1.571,1.674 -3.875,2.832 -6.815,3.39 l -0.047,-0.251 0.106,-0.231 c 1.978,0.912 3.441,1.998 4.41,3.313 0.97,1.314 1.434,2.853 1.433,4.622 10e-4,2.625 -1.136,4.915 -3.046,6.533 -1.91,1.62 -4.587,2.574 -7.676,2.574 h -10.83 v -0.255 z"
         style="fill:#0d0d0a;fill-opacity:1;fill-rule:nonzero;stroke:none"
         id="path88"
         inkscape:connector-curvature="0" />
    </g>
    <g
       id="g90"
       transform="matrix(0.35277777,0,0,-0.35277777,91.522047,128.52828)">
      <path
         d="M 0,0 H 16.54 C 16.377,4.651 13.178,7.703 8.677,7.703 4.284,7.703 0.977,4.802 0,0 m -0.163,-2.801 c 0.271,-6.852 4.176,-10.954 10.25,-10.954 1.844,0 3.904,0.45 5.803,1.2 1.3,0.5 2.006,0.901 3.632,2.001 v -3.151 c -3.416,-2.201 -6.616,-3.251 -10.195,-3.251 -8.134,0 -13.556,5.552 -13.556,13.955 0,7.902 5.422,13.605 12.852,13.605 7.32,0 11.659,-4.802 11.659,-12.855 v -0.55 z"
         style="fill:#0d0d0a;fill-opacity:1;fill-rule:nonzero;stroke:none"
         id="path92"
         inkscape:connector-curvature="0" />
    </g>
    <g
       id="g94"
       transform="matrix(0.35277777,0,0,-0.35277777,91.522047,128.52828)">
      <path
         d="M 0,0 V -0.255 H 16.804 L 16.795,0.009 C 16.712,2.391 15.847,4.385 14.413,5.779 12.979,7.173 10.984,7.959 8.677,7.958 4.163,7.967 0.734,4.944 -0.25,0.051 L -0.312,-0.255 H 0 V 0 L 0.25,-0.051 C 1.219,4.66 4.405,7.44 8.677,7.448 10.87,7.447 12.725,6.708 14.057,5.413 15.389,4.118 16.205,2.261 16.285,-0.009 L 16.54,0 V 0.255 H 0 V 0 l 0.25,-0.051 z m -0.163,-2.801 -0.255,-0.01 c 0.137,-3.471 1.197,-6.274 3.018,-8.211 1.82,-1.938 4.393,-2.99 7.487,-2.988 1.885,10e-4 3.971,0.458 5.896,1.218 l -0.002,-10e-4 c 1.316,0.505 2.057,0.926 3.684,2.028 l -0.143,0.211 h -0.255 v -3.151 h 0.255 l -0.138,0.214 c -3.388,-2.181 -6.529,-3.209 -10.057,-3.21 -4.01,0.001 -7.324,1.365 -9.646,3.749 -2.32,2.385 -3.655,5.803 -3.656,9.951 0.011,7.784 5.308,13.342 12.598,13.35 3.606,-0.002 6.439,-1.177 8.386,-3.324 1.946,-2.148 3.018,-5.294 3.018,-9.276 V -2.546 H -0.429 l 0.011,-0.265 0.255,0.01 v -0.255 h 20.7 v 0.805 c 0,4.071 -1.097,7.352 -3.15,9.618 -2.053,2.267 -5.05,3.493 -8.764,3.491 -3.78,10e-4 -7.066,-1.454 -9.398,-3.918 -2.332,-2.464 -3.71,-5.932 -3.709,-9.941 -0.001,-4.256 1.375,-7.815 3.8,-10.306 2.424,-2.493 5.887,-3.905 10.011,-3.904 3.63,-0.001 6.889,1.071 10.334,3.292 l 0.116,0.075 v 3.771 l -0.397,-0.27 c -1.627,-1.099 -2.297,-1.479 -3.582,-1.974 l -0.002,-10e-4 c -1.872,-0.74 -3.907,-1.182 -5.709,-1.182 -2.981,0.002 -5.397,1.001 -7.115,2.827 -1.718,1.827 -2.746,4.501 -2.88,7.882 l -0.255,-0.01 v -0.255 z"
         style="fill:#0d0d0a;fill-opacity:1;fill-rule:nonzero;stroke:none"
         id="path96"
         inkscape:connector-curvature="0" />
    </g>
    <g
       id="g98"
       transform="matrix(0.35277777,0,0,-0.35277777,100.56198,124.94639)">
      <path
         d="m 0,0 h 3.796 v -5.952 c 3.199,4.601 5.531,6.402 8.351,6.402 2.116,0 3.743,-0.65 5.532,-2.301 l -1.519,-3.55 c -1.247,1.549 -2.602,2.2 -4.229,2.2 -1.682,0 -3.417,-0.901 -4.827,-2.551 -1.844,-2.15 -3.308,-4.401 -3.308,-5.202 V -26.659 H 0 Z"
         style="fill:#0d0d0a;fill-opacity:1;fill-rule:nonzero;stroke:none"
         id="path100"
         inkscape:connector-curvature="0" />
    </g>
    <g
       id="g102"
       transform="matrix(0.35277777,0,0,-0.35277777,100.56198,124.94639)">
      <path
         d="m 0,0 v -0.255 h 3.541 v -6.511 l 0.464,0.668 c 1.592,2.291 2.963,3.872 4.264,4.87 1.304,0.999 2.524,1.421 3.878,1.423 2.062,-0.005 3.596,-0.614 5.359,-2.233 l 0.173,0.187 -0.235,0.101 -1.518,-3.551 0.234,-0.1 0.199,0.159 C 15.083,-3.647 13.628,-2.94 11.931,-2.946 10.156,-2.947 8.356,-3.894 6.91,-5.586 5.981,-6.669 5.148,-7.777 4.544,-8.722 4.241,-9.194 3.995,-9.626 3.822,-9.998 3.65,-10.373 3.544,-10.679 3.541,-10.954 v -15.45 H 0.255 V 0 H 0 V -0.255 0 h -0.255 v -26.914 h 4.306 v 15.96 c -0.004,0.126 0.073,0.401 0.234,0.741 0.477,1.03 1.64,2.697 3.012,4.295 1.374,1.608 3.045,2.463 4.634,2.462 1.556,-0.006 2.812,-0.601 4.031,-2.105 l 0.266,-0.331 1.756,4.107 -0.133,0.122 C 16.036,0.019 14.316,0.711 12.147,0.705 10.682,0.707 9.326,0.229 7.958,-0.823 6.589,-1.875 5.194,-3.495 3.587,-5.807 L 3.796,-5.952 H 4.051 V 0.255 H -0.255 V 0 Z"
         style="fill:#0d0d0a;fill-opacity:1;fill-rule:nonzero;stroke:none"
         id="path104"
         inkscape:connector-curvature="0" />
    </g>
    <g
       id="g106"
       transform="matrix(0.35277777,0,0,-0.35277777,108.6669,127.98119)">
      <path
         d="m 0,0 c 0,-3.352 2.874,-6.053 6.453,-6.053 3.688,0 6.616,2.701 6.616,6.053 0,3.451 -2.928,6.202 -6.562,6.202 C 2.874,6.202 0,3.401 0,0 m 5.477,-18.507 c -4.338,-0.6 -7.429,-2.801 -7.429,-5.302 0,-2.401 3.741,-4.202 8.73,-4.202 4.664,0 8.189,1.902 8.189,4.352 0,2.701 -4.338,5.002 -9.49,5.152 m -7.104,5.352 c 0,2.401 1.844,4.051 5.423,4.851 -4.773,1.001 -7.538,4.102 -7.538,8.304 0,5.102 4.501,9.053 10.412,9.053 0.976,0 1.572,-0.05 3.037,-0.45 h 9.057 V 5.752 h -4.719 c 1.952,-1.751 2.766,-3.401 2.766,-5.803 0,-4.301 -2.983,-7.352 -8.514,-8.753 L 6.128,-9.403 c -2.766,-0.701 -4.176,-1.751 -4.176,-3.201 0,-1.551 1.681,-2.402 5.64,-2.902 2.06,-0.3 3.904,-0.6 5.423,-1.1 3.525,-0.951 5.857,-3.652 5.857,-6.603 0,-4.352 -5.314,-7.553 -12.582,-7.553 -7.05,0 -12.039,2.801 -12.039,6.753 0,3.251 3.2,5.952 8.081,6.802 -2.657,0.751 -3.959,2.102 -3.959,4.052"
         style="fill:#0d0d0a;fill-opacity:1;fill-rule:nonzero;stroke:none"
         id="path108"
         inkscape:connector-curvature="0" />
    </g>
    <g
       id="g110"
       transform="matrix(0.35277777,0,0,-0.35277777,108.6669,127.98119)">
      <path
         d="m 0,0 h -0.255 c 0,-1.75 0.752,-3.331 1.965,-4.469 1.213,-1.139 2.889,-1.839 4.743,-1.839 1.906,0 3.622,0.699 4.863,1.837 1.241,1.137 2.009,2.72 2.008,4.471 10e-4,1.799 -0.765,3.418 -1.998,4.581 C 10.092,5.745 8.388,6.457 6.507,6.457 4.624,6.457 2.934,5.731 1.715,4.561 0.495,3.391 -0.255,1.773 -0.255,0 H 0 0.255 c 0,1.628 0.687,3.112 1.813,4.193 1.126,1.08 2.688,1.754 4.439,1.754 1.752,0 3.33,-0.663 4.469,-1.737 1.139,-1.075 1.838,-2.557 1.838,-4.21 0,-1.6 -0.697,-3.044 -1.842,-4.095 -1.146,-1.051 -2.738,-1.703 -4.519,-1.703 -1.725,0 -3.276,0.651 -4.394,1.701 C 0.94,-3.047 0.255,-1.602 0.255,0 Z m 5.477,-18.507 -0.035,0.253 c -2.203,-0.306 -4.096,-1.015 -5.455,-1.983 -1.355,-0.966 -2.193,-2.209 -2.194,-3.572 -0.001,-0.668 0.263,-1.293 0.723,-1.834 1.384,-1.617 4.475,-2.616 8.262,-2.623 2.367,10e-4 4.45,0.481 5.964,1.287 1.507,0.803 2.477,1.961 2.48,3.32 0,0.745 -0.301,1.454 -0.816,2.084 -1.55,1.887 -5.004,3.202 -8.922,3.323 l -0.021,10e-4 -0.021,-0.003 0.035,-0.253 -0.008,-0.255 c 2.54,-0.073 4.88,-0.68 6.564,-1.589 0.842,-0.453 1.519,-0.982 1.978,-1.546 0.459,-0.565 0.701,-1.157 0.701,-1.762 0.003,-1.092 -0.79,-2.109 -2.211,-2.87 -1.414,-0.756 -3.426,-1.228 -5.723,-1.227 -2.463,-0.001 -4.614,0.447 -6.125,1.176 -0.756,0.363 -1.351,0.796 -1.748,1.266 -0.398,0.472 -0.602,0.973 -0.602,1.505 -0.002,1.139 0.706,2.246 1.98,3.156 1.272,0.908 3.093,1.599 5.228,1.894 l -0.034,0.252 -0.008,-0.255 z m -7.104,5.352 h 0.255 c 0.003,1.135 0.424,2.063 1.284,2.836 0.861,0.771 2.176,1.373 3.939,1.767 l 1.15,0.256 -1.153,0.242 C 1.503,-7.562 -0.329,-6.56 -1.574,-5.181 -2.818,-3.802 -3.486,-2.045 -3.487,0 -3.486,2.475 -2.399,4.664 -0.585,6.247 1.229,7.829 3.771,8.798 6.67,8.798 7.638,8.796 8.182,8.753 9.64,8.357 L 9.673,8.348 h 8.836 V 6.007 h -5.131 l 0.497,-0.445 c 1.916,-1.73 2.672,-3.271 2.681,-5.613 -0.002,-2.091 -0.719,-3.854 -2.111,-5.286 -1.393,-1.431 -3.476,-2.528 -6.211,-3.22 H 8.232 L 6.06,-9.158 6.128,-9.403 6.065,-9.156 c -1.402,-0.356 -2.474,-0.8 -3.216,-1.364 -0.742,-0.559 -1.155,-1.272 -1.152,-2.084 -0.001,-0.434 0.121,-0.839 0.372,-1.186 0.378,-0.523 1.014,-0.913 1.915,-1.228 0.902,-0.313 2.081,-0.552 3.576,-0.741 l 0.032,0.253 -0.037,-0.252 c 2.058,-0.299 3.891,-0.6 5.38,-1.091 l 0.006,-0.002 0.007,-0.002 c 3.439,-0.928 5.672,-3.546 5.669,-6.356 -0.001,-2.065 -1.254,-3.872 -3.442,-5.19 -2.185,-1.313 -5.289,-2.108 -8.885,-2.108 -3.491,-10e-4 -6.462,0.696 -8.539,1.862 -2.079,1.171 -3.244,2.776 -3.245,4.636 10e-4,1.539 0.753,2.953 2.119,4.107 1.366,1.151 3.346,2.026 5.751,2.444 l 1.104,0.192 -1.079,0.304 c -1.301,0.368 -2.249,0.878 -2.862,1.509 -0.613,0.632 -0.909,1.379 -0.911,2.298 h -0.255 -0.255 c -0.002,-1.032 0.353,-1.935 1.055,-2.654 0.702,-0.72 1.734,-1.26 3.09,-1.643 l 0.069,0.245 -0.044,0.251 c -2.476,-0.431 -4.537,-1.332 -5.991,-2.556 -1.454,-1.222 -2.302,-2.784 -2.301,-4.497 -0.001,-2.092 1.328,-3.863 3.506,-5.081 2.181,-1.222 5.229,-1.926 8.788,-1.927 3.671,0.001 6.858,0.807 9.148,2.181 2.286,1.371 3.69,3.34 3.689,5.627 -0.003,3.093 -2.434,5.877 -6.046,6.849 l -0.066,-0.246 0.079,0.242 c -1.547,0.509 -3.402,0.81 -5.466,1.11 l -0.004,10e-4 c -1.966,0.247 -3.356,0.586 -4.22,1.031 -0.433,0.222 -0.732,0.466 -0.92,0.729 -0.188,0.264 -0.276,0.547 -0.277,0.889 0.003,0.637 0.296,1.175 0.95,1.679 0.654,0.499 1.67,0.93 3.033,1.275 h 0.003 l 2.172,0.601 -0.068,0.245 0.062,-0.247 c 2.797,0.709 4.97,1.838 6.452,3.358 1.481,1.519 2.256,3.433 2.254,5.642 0.008,2.461 -0.862,4.221 -2.85,5.993 l -0.17,-0.19 V 5.497 h 4.974 v 3.36 H 9.707 V 8.603 L 9.774,8.848 C 8.302,9.253 7.655,9.309 6.67,9.308 3.658,9.308 0.994,8.301 -0.92,6.632 -2.835,4.964 -3.998,2.627 -3.997,0 c -0.001,-2.157 0.714,-4.051 2.045,-5.523 1.331,-1.473 3.268,-2.521 5.696,-3.03 l 0.052,0.249 -0.056,0.249 c -1.816,-0.406 -3.212,-1.03 -4.168,-1.884 -0.957,-0.852 -1.457,-1.95 -1.454,-3.216 z"
         style="fill:#0d0d0a;fill-opacity:1;fill-rule:nonzero;stroke:none"
         id="path112"
         inkscape:connector-curvature="0" />
    </g>
    <g
       id="g114"
       transform="matrix(0.35277777,0,0,-0.35277777,117.41227,128.52828)">
      <path
         d="M 0,0 H 16.54 C 16.377,4.651 13.178,7.703 8.677,7.703 4.284,7.703 0.977,4.802 0,0 m -0.163,-2.801 c 0.271,-6.852 4.176,-10.954 10.25,-10.954 1.844,0 3.904,0.45 5.803,1.2 1.3,0.5 2.006,0.901 3.632,2.001 v -3.151 c -3.416,-2.201 -6.616,-3.251 -10.195,-3.251 -8.134,0 -13.557,5.552 -13.557,13.955 0,7.902 5.423,13.605 12.853,13.605 7.32,0 11.659,-4.802 11.659,-12.855 v -0.55 z"
         style="fill:#0d0d0a;fill-opacity:1;fill-rule:nonzero;stroke:none"
         id="path116"
         inkscape:connector-curvature="0" />
    </g>
    <g
       id="g118"
       transform="matrix(0.35277777,0,0,-0.35277777,117.41227,128.52828)">
      <path
         d="M 0,0 V -0.255 H 16.804 L 16.795,0.009 C 16.712,2.391 15.847,4.385 14.413,5.779 12.979,7.173 10.984,7.959 8.677,7.958 4.163,7.967 0.734,4.944 -0.25,0.051 L -0.312,-0.255 H 0 V 0 L 0.25,-0.051 C 1.219,4.66 4.405,7.44 8.677,7.448 10.87,7.447 12.725,6.708 14.057,5.413 15.389,4.118 16.205,2.261 16.285,-0.009 L 16.54,0 V 0.255 H 0 V 0 l 0.25,-0.051 z m -0.163,-2.801 -0.255,-0.01 c 0.137,-3.471 1.197,-6.274 3.018,-8.211 1.82,-1.938 4.393,-2.99 7.487,-2.988 1.885,10e-4 3.971,0.458 5.896,1.218 l -0.002,-10e-4 c 1.316,0.505 2.057,0.926 3.684,2.028 l -0.143,0.211 h -0.255 v -3.151 h 0.255 l -0.138,0.214 c -3.388,-2.181 -6.529,-3.209 -10.057,-3.21 -4.01,0.001 -7.324,1.365 -9.646,3.749 -2.32,2.385 -3.655,5.803 -3.656,9.951 0.011,7.784 5.308,13.342 12.598,13.35 3.606,-0.002 6.439,-1.177 8.386,-3.324 1.946,-2.148 3.018,-5.294 3.018,-9.276 V -2.546 H -0.429 l 0.011,-0.265 0.255,0.01 v -0.255 h 20.7 v 0.805 c 0,4.071 -1.097,7.352 -3.15,9.618 -2.053,2.267 -5.05,3.493 -8.764,3.491 -3.78,10e-4 -7.066,-1.454 -9.398,-3.918 -2.332,-2.464 -3.71,-5.932 -3.71,-9.941 0,-4.256 1.376,-7.815 3.801,-10.306 2.424,-2.493 5.887,-3.905 10.011,-3.904 3.63,-0.001 6.889,1.071 10.334,3.292 l 0.116,0.075 v 3.771 l -0.397,-0.27 c -1.627,-1.099 -2.297,-1.479 -3.582,-1.974 l -0.002,-10e-4 c -1.872,-0.74 -3.907,-1.182 -5.709,-1.182 -2.981,0.002 -5.397,1.001 -7.115,2.827 -1.718,1.827 -2.746,4.501 -2.88,7.882 l -0.255,-0.01 v -0.255 z"
         style="fill:#0d0d0a;fill-opacity:1;fill-rule:nonzero;stroke:none"
         id="path120"
         inkscape:connector-curvature="0" />
    </g>
    <g
       id="g122"
       transform="matrix(0.35277777,0,0,-0.35277777,126.4522,124.94639)">
      <path
         d="m 0,0 h 3.796 v -5.952 c 3.199,4.601 5.531,6.402 8.351,6.402 2.116,0 3.743,-0.65 5.532,-2.301 l -1.519,-3.55 c -1.247,1.549 -2.602,2.2 -4.229,2.2 -1.682,0 -3.417,-0.901 -4.827,-2.551 -1.844,-2.15 -3.308,-4.401 -3.308,-5.202 V -26.659 H 0 Z"
         style="fill:#0d0d0a;fill-opacity:1;fill-rule:nonzero;stroke:none"
         id="path124"
         inkscape:connector-curvature="0" />
    </g>
    <g
       id="g126"
       transform="matrix(0.35277777,0,0,-0.35277777,126.4522,124.94639)">
      <path
         d="m 0,0 v -0.255 h 3.541 v -6.511 l 0.464,0.668 c 1.592,2.291 2.963,3.872 4.264,4.87 1.304,0.999 2.524,1.421 3.878,1.423 2.062,-0.005 3.596,-0.614 5.359,-2.233 l 0.173,0.187 -0.235,0.101 -1.518,-3.551 0.234,-0.1 0.199,0.159 C 15.083,-3.647 13.628,-2.94 11.931,-2.946 10.156,-2.947 8.356,-3.894 6.91,-5.586 5.981,-6.669 5.148,-7.777 4.544,-8.722 4.241,-9.194 3.995,-9.626 3.822,-9.998 3.65,-10.373 3.544,-10.679 3.541,-10.954 v -15.45 H 0.255 V 0 H 0 V -0.255 0 h -0.255 v -26.914 h 4.306 v 15.96 c -0.004,0.126 0.073,0.401 0.234,0.741 0.477,1.03 1.64,2.697 3.012,4.295 1.374,1.608 3.045,2.463 4.634,2.462 1.556,-0.006 2.812,-0.601 4.031,-2.105 l 0.266,-0.331 1.756,4.107 -0.133,0.122 C 16.036,0.019 14.316,0.711 12.147,0.705 10.682,0.707 9.326,0.229 7.958,-0.823 6.589,-1.875 5.194,-3.495 3.587,-5.807 L 3.796,-5.952 H 4.051 V 0.255 H -0.255 V 0 Z"
         style="fill:#0d0d0a;fill-opacity:1;fill-rule:nonzero;stroke:none"
         id="path128"
         inkscape:connector-curvature="0" />
    </g>
    <g
       id="g130"
       transform="matrix(0.35277777,0,0,-0.35277777,138.80806,129.42811)">
      <path
         d="m 0,0 c -7.701,-0.7 -11.605,-3.102 -11.605,-7.103 0,-2.601 2.06,-4.351 5.097,-4.351 2.332,0 4.393,0.75 6.508,2.4 z m 0.054,5.452 c 0,3.001 -2.169,4.751 -5.748,4.751 -2.929,0 -5.586,-1.25 -8.515,-4.001 v 3.751 c 2.875,2.201 5.694,3.201 9.22,3.201 5.423,0 8.785,-2.9 8.785,-7.602 V -9.403 c 0,-1.401 0.162,-1.701 0.922,-1.701 0.325,0 0.759,0.1 1.247,0.35 l 1.085,0.35 0.162,0.15 v -2.801 c -1.789,-0.8 -3.308,-1.15 -4.284,-1.15 -1.844,0 -2.82,0.85 -2.874,2.4 -2.549,-1.751 -4.881,-2.6 -7.647,-2.6 -4.772,0 -8.134,2.9 -8.134,7.002 0,3.201 1.898,5.852 5.26,7.403 2.441,1.15 4.935,1.75 10.087,2.45 l 0.434,0.051 z"
         style="fill:#0d0d0a;fill-opacity:1;fill-rule:nonzero;stroke:none"
         id="path132"
         inkscape:connector-curvature="0" />
    </g>
    <g
       id="g134"
       transform="matrix(0.35277777,0,0,-0.35277777,138.80806,129.42811)">
      <path
         d="m 0,0 -0.023,0.254 c -3.873,-0.353 -6.807,-1.13 -8.801,-2.35 -1.994,-1.214 -3.042,-2.919 -3.036,-5.007 -0.002,-1.368 0.548,-2.537 1.499,-3.345 0.95,-0.809 2.286,-1.261 3.853,-1.261 2.388,-0.002 4.518,0.777 6.665,2.454 l 0.098,0.077 V 0.279 L -0.023,0.254 0,0 H -0.255 V -9.054 H 0 l -0.157,0.201 c -2.084,-1.623 -4.075,-2.344 -6.351,-2.346 -1.47,0 -2.683,0.423 -3.522,1.139 -0.839,0.718 -1.319,1.724 -1.321,2.957 0.006,1.914 0.911,3.41 2.794,4.572 1.883,1.156 4.751,1.93 8.58,2.277 L 0,0 h -0.255 z m 0.054,5.452 h 0.255 c 0.003,1.561 -0.574,2.838 -1.625,3.698 -1.051,0.862 -2.549,1.308 -4.378,1.308 -3.007,0.002 -5.738,-1.294 -8.69,-4.07 l 0.175,-0.186 h 0.255 v 3.751 h -0.255 l 0.155,-0.202 c 2.843,2.173 5.588,3.145 9.065,3.148 2.667,0 4.799,-0.713 6.259,-1.975 C 2.729,9.66 3.539,7.843 3.541,5.552 V -9.403 c 0.004,-0.711 0.029,-1.156 0.207,-1.497 0.089,-0.17 0.237,-0.303 0.408,-0.371 0.172,-0.07 0.356,-0.088 0.562,-0.088 0.377,0 0.844,0.113 1.363,0.378 l -0.116,0.227 0.078,-0.243 1.138,0.367 0.204,0.189 -0.173,0.187 H 6.957 v -2.801 h 0.255 l -0.104,0.233 c -1.764,-0.791 -3.261,-1.13 -4.18,-1.128 -0.885,0 -1.525,0.204 -1.944,0.558 -0.417,0.355 -0.648,0.87 -0.676,1.596 l -0.016,0.465 -0.383,-0.264 c -2.523,-1.731 -4.79,-2.553 -7.502,-2.555 -2.335,0 -4.307,0.709 -5.69,1.901 -1.383,1.193 -2.187,2.865 -2.189,4.846 0.004,3.094 1.816,5.645 5.112,7.172 h 0.002 c 2.406,1.135 4.865,1.729 10.012,2.429 L -0.38,2.45 -0.35,2.197 0.083,2.248 0.309,2.274 V 5.452 H 0.054 -0.201 V 2.728 L -0.41,2.703 H -0.414 C -5.571,2.002 -8.101,1.397 -10.576,0.231 l 0.002,0.001 c -3.429,-1.575 -5.412,-4.327 -5.408,-7.635 -0.001,-2.121 0.875,-3.95 2.366,-5.232 1.491,-1.284 3.586,-2.025 6.023,-2.025 2.82,-0.002 5.217,0.874 7.791,2.645 l -0.144,0.21 -0.255,-0.009 c 0.027,-0.824 0.311,-1.509 0.856,-1.967 0.544,-0.459 1.314,-0.679 2.273,-0.679 1.034,0.002 2.573,0.362 4.388,1.173 l 0.151,0.067 v 3.551 l -0.549,-0.51 -1.051,-0.339 -0.018,-0.009 c -0.458,-0.235 -0.858,-0.323 -1.131,-0.323 -0.174,0 -0.295,0.02 -0.368,0.05 -0.102,0.048 -0.152,0.091 -0.216,0.308 -0.058,0.214 -0.084,0.571 -0.083,1.089 V 5.552 c 0.002,2.411 -0.87,4.395 -2.447,5.757 -1.577,1.363 -3.838,2.1 -6.593,2.1 -3.574,0.003 -6.468,-1.024 -9.375,-3.253 l -0.1,-0.077 V 5.613 l 0.429,0.403 c 2.906,2.726 5.489,3.93 8.341,3.932 1.749,0 3.125,-0.428 4.054,-1.192 0.928,-0.765 1.436,-1.864 1.439,-3.304 z"
         style="fill:#0d0d0a;fill-opacity:1;fill-rule:nonzero;stroke:none"
         id="path136"
         inkscape:connector-curvature="0" />
    </g>
    <g
       id="g138"
       transform="matrix(0.35277777,0,0,-0.35277777,149.5354,126.64036)">
      <path
         d="m 0,0 c -2.386,1.551 -4.121,2.102 -6.725,2.102 -6.019,0 -10.412,-4.552 -10.412,-10.755 0,-6.152 4.393,-10.503 10.629,-10.503 2.278,0 3.959,0.399 6.453,1.45 v -3.302 c -2.494,-0.95 -4.229,-1.3 -6.941,-1.3 -8.677,0 -14.316,5.302 -14.316,13.505 0,8.053 6.074,14.106 14.045,14.106 2.549,0 4.61,-0.551 7.267,-1.852 z"
         style="fill:#0d0d0a;fill-opacity:1;fill-rule:nonzero;stroke:none"
         id="path140"
         inkscape:connector-curvature="0" />
    </g>
    <g
       id="g142"
       transform="matrix(0.35277777,0,0,-0.35277777,149.5354,126.64036)">
      <path
         d="m 0,0 0.139,0.214 c -2.405,1.568 -4.224,2.147 -6.864,2.143 -3.074,0 -5.748,-1.166 -7.646,-3.129 -1.899,-1.963 -3.021,-4.72 -3.021,-7.881 -0.001,-3.136 1.123,-5.833 3.052,-7.74 1.928,-1.907 4.655,-3.019 7.832,-3.018 2.308,-0.002 4.045,0.412 6.552,1.47 l -0.099,0.235 H -0.31 v -3.302 h 0.255 l -0.091,0.238 c -2.479,-0.942 -4.159,-1.281 -6.85,-1.283 -4.288,0.001 -7.798,1.308 -10.237,3.607 -2.439,2.3 -3.823,5.599 -3.825,9.643 0.006,7.92 5.954,13.845 13.791,13.851 2.511,-0.002 4.516,-0.536 7.155,-1.826 L 0,3.451 H -0.255 V 0 H 0 L 0.139,0.214 0,0 H 0.255 V 3.61 L 0.112,3.68 c -2.676,1.312 -4.792,1.879 -7.379,1.878 -4.05,0 -7.63,-1.54 -10.192,-4.108 -2.564,-2.567 -4.109,-6.162 -4.109,-10.253 -10e-4,-4.159 1.435,-7.612 3.985,-10.014 2.549,-2.403 6.198,-3.746 10.587,-3.745 2.733,-0.002 4.523,0.358 7.032,1.316 l 0.164,0.063 v 3.861 l -0.354,-0.149 c -2.481,-1.043 -4.107,-1.428 -6.354,-1.43 -3.059,0 -5.646,1.064 -7.474,2.871 -1.826,1.807 -2.899,4.361 -2.9,7.377 0.009,6.08 4.274,10.492 10.157,10.5 2.568,-0.005 4.219,-0.528 6.586,-2.061 L 0.255,-0.47 V 0 Z"
         style="fill:#0d0d0a;fill-opacity:1;fill-rule:nonzero;stroke:none"
         id="path144"
         inkscape:connector-curvature="0" />
    </g>
    <g
       id="g146"
       transform="matrix(0.35277777,0,0,-0.35277777,80.894933,147.98168)">
      <path
         d="m 0,0 h 6.688 c 2.624,0 4.896,0.403 6.47,1.129 4.066,1.976 6.645,6.171 6.645,10.889 0,7.138 -5.246,11.857 -13.202,11.857 H 0 Z m -3.323,26.496 h 10.58 c 9.354,0 16,-6.049 16,-14.599 C 23.257,6.13 19.978,1.008 14.819,-1.21 12.765,-2.138 10.142,-2.581 6.994,-2.581 H -3.323 Z"
         style="fill:#0d0d0a;fill-opacity:1;fill-rule:nonzero;stroke:none"
         id="path148"
         inkscape:connector-curvature="0" />
    </g>
    <g
       id="g150"
       transform="matrix(0.35277777,0,0,-0.35277777,80.894933,147.98168)">
      <path
         d="m 0,0 v -0.255 h 6.688 c 2.65,0.001 4.951,0.404 6.577,1.152 L 13.27,0.9 c 4.156,2.02 6.788,6.307 6.788,11.118 0.001,3.631 -1.34,6.675 -3.703,8.795 -2.361,2.122 -5.727,3.317 -9.754,3.317 H -0.255 V -0.255 H 0 V 0 h 0.255 v 23.62 h 6.346 c 3.928,0 7.163,-1.164 9.414,-3.186 2.25,-2.024 3.531,-4.909 3.533,-8.416 C 19.547,7.393 17.021,3.291 13.047,1.358 L 13.158,1.129 13.051,1.36 C 11.529,0.657 9.285,0.254 6.688,0.255 H 0 V 0 h 0.255 z m -3.323,26.496 v -0.255 h 10.58 c 4.623,0 8.557,-1.493 11.336,-4.026 2.778,-2.535 4.408,-6.109 4.409,-10.318 C 23.001,6.227 19.78,1.201 14.719,-0.976 L 14.714,-0.978 C 12.707,-1.885 10.118,-2.326 6.994,-2.326 H -3.068 v 28.822 h -0.255 v -0.255 0.255 H -3.578 V -2.836 H 6.994 c 3.171,0 5.829,0.445 7.93,1.394 l -0.105,0.232 0.101,-0.234 c 5.255,2.259 8.592,7.477 8.592,13.341 0.001,4.342 -1.692,8.067 -4.576,10.694 -2.882,2.629 -6.947,4.16 -11.679,4.16 H -3.578 v -0.255 z"
         style="fill:#0d0d0a;fill-opacity:1;fill-rule:nonzero;stroke:none"
         id="path152"
         inkscape:connector-curvature="0" />
    </g>
    <g
       id="g154"
       transform="matrix(0.35277777,0,0,-0.35277777,93.138474,149.02037)">
      <path
         d="m 0,0 c -3.147,0 -5.814,1.533 -6.863,3.952 -0.35,0.767 -0.525,1.896 -0.525,3.308 v 14.598 h 3.06 V 7.743 c 0,-3.266 1.924,-5.162 5.071,-5.162 2.448,0 4.547,1.21 6.339,3.711 v 15.566 h 3.061 V 0.363 H 7.082 V 3.59 C 5.202,1.21 2.93,0 0,0"
         style="fill:#0d0d0a;fill-opacity:1;fill-rule:nonzero;stroke:none"
         id="path156"
         inkscape:connector-curvature="0" />
    </g>
    <g
       id="g158"
       transform="matrix(0.35277777,0,0,-0.35277777,93.138474,149.02037)">
      <path
         d="m 0,0 v 0.255 c -3.068,0.001 -5.632,1.492 -6.63,3.799 l -0.001,0.004 c -0.326,0.71 -0.503,1.811 -0.502,3.202 v 14.343 l 2.55,10e-4 V 7.743 C -4.584,6.062 -4.085,4.696 -3.154,3.758 -2.224,2.818 -0.88,2.325 0.743,2.326 3.281,2.322 5.471,3.598 7.289,6.144 L 7.337,6.21 v 15.393 l 2.551,10e-4 V 0.618 H 7.337 V 4.325 L 6.882,3.748 C 5.032,1.416 2.857,0.26 0,0.255 V 0 -0.255 C 3.002,-0.26 5.372,1.004 7.282,3.432 L 7.082,3.59 H 6.827 V 0.108 h 3.57 V 22.113 H 6.827 V 6.292 H 7.082 L 6.875,6.44 C 5.109,3.984 3.102,2.84 0.743,2.836 -0.781,2.837 -1.973,3.292 -2.792,4.117 -3.609,4.942 -4.072,6.158 -4.073,7.743 v 14.37 h -3.57 V 7.26 c 0.002,-1.434 0.174,-2.59 0.548,-3.414 l 0.232,0.106 -0.234,-0.101 c 1.1,-2.532 3.87,-4.107 7.097,-4.106 z"
         style="fill:#0d0d0a;fill-opacity:1;fill-rule:nonzero;stroke:none"
         id="path160"
         inkscape:connector-curvature="0" />
    </g>
    <g
       id="g162"
       transform="matrix(0.35277777,0,0,-0.35277777,98.687845,141.30921)">
      <path
         d="m 0,0 h 3.06 v -4.799 c 2.58,3.71 4.46,5.162 6.732,5.162 1.705,0 3.017,-0.524 4.459,-1.855 l -1.224,-2.863 c -1.006,1.25 -2.098,1.774 -3.41,1.774 -1.354,0 -2.754,-0.726 -3.89,-2.057 C 4.24,-6.372 3.06,-8.187 3.06,-8.832 V -21.495 H 0 Z"
         style="fill:#0d0d0a;fill-opacity:1;fill-rule:nonzero;stroke:none"
         id="path164"
         inkscape:connector-curvature="0" />
    </g>
    <g
       id="g166"
       transform="matrix(0.35277777,0,0,-0.35277777,98.687845,141.30921)">
      <path
         d="m 0,0 v -0.255 h 2.805 v -5.358 l 0.464,0.669 c 1.282,1.844 2.385,3.115 3.427,3.915 1.045,0.8 2.015,1.135 3.096,1.137 1.651,-0.005 2.87,-0.488 4.286,-1.788 l 0.173,0.188 -0.235,0.1 -1.223,-2.863 0.234,-0.1 0.199,0.159 C 12.192,-2.9 10.999,-2.32 9.617,-2.326 8.169,-2.327 6.705,-3.099 5.533,-4.472 4.783,-5.347 4.11,-6.242 3.621,-7.006 3.376,-7.388 3.177,-7.737 3.036,-8.041 2.896,-8.346 2.808,-8.596 2.805,-8.832 V -21.24 H 0.255 V 0 H 0 V -0.255 0 h -0.255 v -21.75 h 3.569 v 12.918 c -0.003,0.087 0.056,0.306 0.184,0.576 0.381,0.823 1.318,2.166 2.422,3.452 1.101,1.289 2.436,1.969 3.697,1.968 1.241,-0.006 2.234,-0.474 3.212,-1.679 l 0.266,-0.331 1.461,3.419 -0.132,0.122 C 12.955,0.058 11.551,0.624 9.792,0.618 8.6,0.62 7.494,0.23 6.386,-0.624 5.275,-1.478 4.148,-2.788 2.85,-4.653 L 3.06,-4.799 H 3.314 V 0.255 H -0.255 V 0 Z"
         style="fill:#0d0d0a;fill-opacity:1;fill-rule:nonzero;stroke:none"
         id="path168"
         inkscape:connector-curvature="0" />
    </g>
    <g
       id="g170"
       transform="matrix(0.35277777,0,0,-0.35277777,108.69308,144.92278)">
      <path
         d="m 0,0 c -6.208,-0.564 -9.355,-2.501 -9.355,-5.727 0,-2.097 1.661,-3.508 4.109,-3.508 1.88,0 3.541,0.604 5.246,1.935 z m 0.043,4.396 c 0,2.419 -1.748,3.831 -4.634,3.831 -2.36,0 -4.503,-1.008 -6.863,-3.226 v 3.024 c 2.317,1.775 4.59,2.581 7.432,2.581 4.372,0 7.082,-2.338 7.082,-6.129 V -7.582 c 0,-1.129 0.131,-1.371 0.743,-1.371 0.262,0 0.612,0.081 1.006,0.282 l 0.874,0.282 0.131,0.121 v -2.258 c -1.443,-0.645 -2.667,-0.927 -3.454,-0.927 -1.486,0 -2.273,0.685 -2.317,1.935 -2.055,-1.412 -3.934,-2.097 -6.164,-2.097 -3.847,0 -6.557,2.34 -6.557,5.646 0,2.581 1.53,4.719 4.24,5.969 1.967,0.928 3.979,1.411 8.131,1.976 l 0.35,0.041 z"
         style="fill:#0d0d0a;fill-opacity:1;fill-rule:nonzero;stroke:none"
         id="path172"
         inkscape:connector-curvature="0" />
    </g>
    <g
       id="g174"
       transform="matrix(0.35277777,0,0,-0.35277777,108.69308,144.92278)">
      <path
         d="m 0,0 -0.023,0.254 c -3.126,-0.285 -5.498,-0.912 -7.116,-1.902 -1.619,-0.984 -2.477,-2.378 -2.471,-4.079 -0.002,-1.116 0.448,-2.074 1.226,-2.735 0.776,-0.661 1.866,-1.028 3.138,-1.028 1.936,-0.002 3.666,0.631 5.403,1.989 l 0.098,0.077 V 0.279 L -0.023,0.254 0,0 H -0.255 V -7.3 H 0 l -0.157,0.201 c -1.674,-1.304 -3.265,-1.879 -5.089,-1.881 -1.176,0 -2.141,0.338 -2.808,0.906 -0.665,0.57 -1.045,1.366 -1.047,2.347 0.006,1.526 0.721,2.713 2.228,3.644 1.508,0.926 3.814,1.55 6.896,1.829 L 0,0 H -0.255 Z M 0.043,4.396 H 0.298 C 0.301,5.666 -0.17,6.712 -1.03,7.416 -1.889,8.12 -3.108,8.481 -4.591,8.482 -7.029,8.484 -9.245,7.43 -11.629,5.187 l 0.175,-0.186 h 0.255 v 3.024 h -0.255 l 0.155,-0.202 c 2.285,1.746 4.483,2.526 7.277,2.529 C -1.881,10.351 -0.174,9.779 0.991,8.77 2.156,7.761 2.802,6.312 2.805,4.477 V -7.582 c 0.004,-0.575 0.022,-0.938 0.173,-1.23 0.076,-0.146 0.206,-0.263 0.354,-0.321 0.148,-0.06 0.302,-0.074 0.471,-0.075 0.314,10e-4 0.698,0.094 1.122,0.31 l -0.116,0.227 0.078,-0.242 0.874,0.282 0.053,0.017 0.173,0.159 -0.173,0.187 H 5.559 v -2.258 h 0.255 l -0.104,0.232 c -1.417,-0.634 -2.62,-0.906 -3.35,-0.904 -0.706,0 -1.21,0.163 -1.535,0.439 -0.324,0.275 -0.505,0.675 -0.527,1.25 l -0.017,0.465 -0.382,-0.263 c -2.03,-1.393 -3.844,-2.051 -6.02,-2.053 -1.872,0 -3.45,0.569 -4.555,1.521 -1.104,0.954 -1.745,2.287 -1.747,3.87 0.004,2.474 1.448,4.512 4.092,5.738 h 0.002 c 1.933,0.912 3.909,1.39 8.057,1.954 l -0.035,0.253 0.03,-0.254 0.35,0.041 0.225,0.027 V 4.396 H 0.043 -0.212 V 2.243 L -0.336,2.229 -0.341,2.228 C -4.498,1.663 -6.546,1.175 -8.546,0.231 l 0.002,0.001 c -2.778,-1.275 -4.393,-3.513 -4.389,-6.201 -10e-4,-1.723 0.712,-3.213 1.925,-4.256 1.211,-1.044 2.912,-1.645 4.887,-1.645 2.284,-0.002 4.228,0.71 6.308,2.142 l -0.144,0.21 -0.255,-0.008 c 0.022,-0.675 0.256,-1.243 0.708,-1.623 0.451,-0.38 1.084,-0.559 1.864,-0.559 0.845,0.002 2.089,0.294 3.558,0.949 l 0.151,0.067 v 3.005 L 5.551,-8.163 4.73,-8.428 4.711,-8.435 4.693,-8.444 C 4.329,-8.63 4.014,-8.699 3.803,-8.698 3.666,-8.699 3.574,-8.683 3.525,-8.662 3.459,-8.628 3.431,-8.614 3.38,-8.446 3.335,-8.283 3.314,-7.997 3.314,-7.582 V 4.477 C 3.317,6.432 2.608,8.048 1.325,9.156 0.042,10.265 -1.792,10.862 -4.022,10.861 -6.913,10.864 -9.26,10.03 -11.609,8.228 l -0.1,-0.077 V 4.412 l 0.429,0.403 c 2.338,2.193 4.406,3.155 6.689,3.157 1.403,0 2.5,-0.344 3.237,-0.95 0.736,-0.608 1.139,-1.477 1.142,-2.626 z"
         style="fill:#0d0d0a;fill-opacity:1;fill-rule:nonzero;stroke:none"
         id="path176"
         inkscape:connector-curvature="0" />
    </g>
    <g
       id="g178"
       transform="matrix(0.35277777,0,0,-0.35277777,116.74255,142.68935)">
      <path
         d="m 0,0 c -0.481,0.363 -0.918,0.646 -1.181,0.767 -1.18,0.645 -2.754,1.088 -4.153,1.088 -2.666,0 -4.678,-1.532 -4.678,-3.508 0,-1.371 0.962,-2.5 2.798,-3.226 l 3.148,-1.21 c 3.454,-1.331 4.896,-2.984 4.896,-5.525 0,-3.71 -3.147,-6.332 -7.562,-6.332 -1.312,0 -2.623,0.242 -3.891,0.605 -0.918,0.322 -1.443,0.605 -2.58,1.25 v 2.742 c 0.568,-0.403 1.006,-0.685 1.268,-0.886 1.443,-0.807 3.323,-1.291 4.984,-1.291 2.667,0 4.503,1.573 4.503,3.872 0,1.371 -1.006,2.5 -2.886,3.225 l -3.147,1.21 c -3.192,1.331 -4.809,3.066 -4.809,5.526 0,3.306 3.322,5.968 7.432,5.968 2.054,0 3.671,-0.403 5.858,-1.492 z"
         style="fill:#0d0d0a;fill-opacity:1;fill-rule:nonzero;stroke:none"
         id="path180"
         inkscape:connector-curvature="0" />
    </g>
    <g
       id="g182"
       transform="matrix(0.35277777,0,0,-0.35277777,116.74255,142.68935)">
      <path
         d="M 0,0 0.153,0.203 C -0.339,0.574 -0.777,0.86 -1.074,0.998 L -1.181,0.767 -1.058,0.99 c -1.222,0.666 -2.823,1.119 -4.276,1.12 -1.382,0 -2.604,-0.395 -3.492,-1.064 -0.887,-0.666 -1.442,-1.621 -1.441,-2.699 -0.001,-0.746 0.267,-1.438 0.773,-2.022 0.505,-0.585 1.241,-1.067 2.186,-1.441 l 0.003,-0.001 3.147,-1.21 c 1.706,-0.657 2.893,-1.388 3.644,-2.24 0.75,-0.852 1.087,-1.824 1.089,-3.047 -0.002,-1.782 -0.749,-3.285 -2.034,-4.362 -1.285,-1.075 -3.116,-1.715 -5.273,-1.715 -1.28,0 -2.569,0.236 -3.821,0.595 l -0.07,-0.245 0.084,0.241 c -0.9,0.316 -1.4,0.585 -2.538,1.231 l -0.126,-0.222 h 0.255 v 2.742 h -0.255 l -0.148,-0.208 c 0.572,-0.405 1.014,-0.691 1.261,-0.881 l 0.015,-0.011 0.016,-0.009 c 1.487,-0.83 3.397,-1.322 5.108,-1.323 1.383,0 2.57,0.408 3.417,1.135 0.848,0.726 1.342,1.774 1.341,2.992 10e-4,0.749 -0.28,1.442 -0.803,2.024 -0.523,0.585 -1.28,1.066 -2.246,1.439 l -3.148,1.21 -0.091,-0.238 0.098,0.236 c -1.575,0.656 -2.743,1.406 -3.509,2.273 -0.765,0.867 -1.141,1.843 -1.143,3.017 0,1.565 0.784,2.984 2.079,4.025 1.295,1.04 3.098,1.689 5.098,1.689 2.02,-0.003 3.577,-0.389 5.744,-1.466 L 0,2.783 H -0.255 V 0 H 0 L 0.153,0.203 0,0 h 0.255 v 2.941 l -0.141,0.07 c -2.206,1.101 -3.884,1.521 -5.972,1.519 -2.11,0 -4.023,-0.682 -5.417,-1.8 -1.393,-1.117 -2.27,-2.682 -2.27,-4.423 -0.002,-1.286 0.43,-2.408 1.272,-3.355 0.84,-0.949 2.076,-1.731 3.693,-2.406 l 0.008,-0.003 3.146,-1.21 c 0.913,-0.352 1.599,-0.798 2.05,-1.302 0.45,-0.506 0.671,-1.063 0.673,-1.685 -0.002,-1.082 -0.426,-1.969 -1.163,-2.605 -0.738,-0.634 -1.801,-1.012 -3.085,-1.012 -1.612,-0.002 -3.462,0.475 -4.859,1.258 l -0.125,-0.222 0.155,0.202 c -0.278,0.213 -0.711,0.491 -1.276,0.892 l -0.402,0.286 v -3.384 l 0.129,-0.073 c 1.135,-0.645 1.686,-0.941 2.621,-1.269 l 0.006,-0.002 0.009,-0.003 c 1.283,-0.368 2.617,-0.615 3.961,-0.615 2.257,0 4.207,0.67 5.6,1.834 1.393,1.162 2.219,2.825 2.217,4.753 0.002,1.317 -0.382,2.443 -1.217,3.385 -0.834,0.943 -2.095,1.704 -3.843,2.378 l -3.147,1.21 0.002,-0.001 c -0.891,0.352 -1.554,0.797 -1.988,1.3 -0.435,0.505 -0.648,1.063 -0.649,1.689 10e-4,0.898 0.453,1.698 1.238,2.292 0.784,0.591 1.901,0.962 3.185,0.962 1.346,0.001 2.891,-0.433 4.031,-1.058 l 0.006,-0.003 0.01,-0.005 c 0.228,-0.104 0.662,-0.382 1.133,-0.738 L 0.255,-0.512 V 0 Z"
         style="fill:#0d0d0a;fill-opacity:1;fill-rule:nonzero;stroke:none"
         id="path184"
         inkscape:connector-curvature="0" />
    </g>
  </g>
</svg>
