<?xml version="1.0" encoding="UTF-8" standalone="no"?>
<!-- Created with Inkscape (http://www.inkscape.org/) -->

<svg
   xmlns:dc="http://purl.org/dc/elements/1.1/"
   xmlns:cc="http://creativecommons.org/ns#"
   xmlns:rdf="http://www.w3.org/1999/02/22-rdf-syntax-ns#"
   xmlns:svg="http://www.w3.org/2000/svg"
   xmlns="http://www.w3.org/2000/svg"
   xmlns:xlink="http://www.w3.org/1999/xlink"
   xmlns:sodipodi="http://sodipodi.sourceforge.net/DTD/sodipodi-0.dtd"
   xmlns:inkscape="http://www.inkscape.org/namespaces/inkscape"
   width="500"
   height="500"
   id="svg2"
   version="1.1"
   inkscape:version="0.48.5 r10040"
   sodipodi:docname="24emewiki.svg"
   inkscape:export-filename="/tmp/24emeWiki.jpg.png"
   inkscape:export-xdpi="24.299999"
   inkscape:export-ydpi="24.299999">
  <defs
     id="defs4">
    <inkscape:perspective
       sodipodi:type="inkscape:persp3d"
       inkscape:vp_x="0 : 250 : 1"
       inkscape:vp_y="0 : 1000 : 0"
       inkscape:vp_z="500 : 250 : 1"
       inkscape:persp3d-origin="250 : 166.66667 : 1"
       id="perspective3902" />
    <linearGradient
       inkscape:collect="always"
       id="linearGradient3848">
      <stop
         style="stop-color:#cab796;stop-opacity:1;"
         offset="0"
         id="stop3850" />
      <stop
         style="stop-color:#cab796;stop-opacity:0;"
         offset="1"
         id="stop3852" />
    </linearGradient>
    <radialGradient
       inkscape:collect="always"
       xlink:href="#linearGradient3848"
       id="radialGradient3854"
       cx="367.41251"
       cy="306.09787"
       fx="367.41251"
       fy="306.09787"
       r="219.16798"
       gradientTransform="matrix(1,0,0,0.97299204,604.07123,369.90169)"
       gradientUnits="userSpaceOnUse" />
  </defs>
  <sodipodi:namedview
     id="base"
     pagecolor="#ffffff"
     bordercolor="#666666"
     borderopacity="1.0"
     inkscape:pageopacity="0.0"
     inkscape:pageshadow="2"
     inkscape:zoom="0.98994949"
     inkscape:cx="233.14281"
     inkscape:cy="252.66131"
     inkscape:document-units="px"
     inkscape:current-layer="layer1"
     showgrid="false"
     inkscape:window-width="1366"
     inkscape:window-height="702"
     inkscape:window-x="0"
     inkscape:window-y="27"
     inkscape:window-maximized="1" />
  <metadata
     id="metadata7">
    <rdf:RDF>
      <cc:Work
         rdf:about="">
        <dc:format>image/svg+xml</dc:format>
        <dc:type
           rdf:resource="http://purl.org/dc/dcmitype/StillImage" />
        <dc:title></dc:title>
      </cc:Work>
    </rdf:RDF>
  </metadata>
  <g
     inkscape:label="Calque 1"
     inkscape:groupmode="layer"
     id="layer1"
     transform="translate(0,-552.36218)">
    <path
       inkscape:connector-curvature="0"
       id="path3054"
       d="M 220.81036,1014.2362 C 129.46551,1001.624 55.90103,935.97759 35.94436,849.26808 c -4.84144,-21.03551 -6.73612,-53.36274 -4.12717,-70.41809 5.14995,-33.66645 12.74714,-56.54489 26.75694,-80.5768 12.07544,-20.71375 30.87381,-42.95114 49.16255,-58.15646 28.4721,-23.67178 65.90678,-40.93195 102.57368,-47.2941 37.3681,-6.48382 71.02793,-4.28537 108.75145,7.10294 3.7133,1.12101 6.94946,2.35857 7.19147,2.75015 0.242,0.39157 -1.89615,3.30966 -4.75146,6.48464 l -5.19146,5.77268 -10.54031,-2.9749 c -35.49057,-10.01688 -72.74576,-10.18657 -109.95969,-0.50083 -46.95542,12.22117 -90.26469,43.10779 -117.43514,83.75053 -21.44894,32.08425 -32.50144,68.66138 -32.50144,107.56024 0,48.97513 17.02256,92.71374 50.83253,130.61166 9.33455,10.46319 9.42524,10.54867 22.93396,21.61947 27.65102,22.66082 59.34656,36.60443 99.67009,43.84722 9.28984,1.66857 40.70195,2.31827 52.03763,1.07621 78.29591,-8.57886 143.48295,-57.75693 170.93251,-128.95399 15.42093,-39.9979 16.4808,-87.65565 2.85535,-128.39241 l -2.86105,-8.55381 5.57558,-6.21438 5.57558,-6.21437 2.71605,6.92275 c 4.08676,10.41647 8.43942,26.32899 10.87354,39.75165 2.93121,16.16387 3.15,49.43104 0.43407,66 -7.47763,45.61839 -27.51481,84.65772 -60.05726,117.01223 -28.88951,28.72267 -64.99805,49.15449 -102.582,58.04549 -3.575,0.8457 -7.4,1.7606 -8.5,2.0331 -15.75146,3.9017 -56.76147,5.4646 -75.5,2.8773 z m -28.5,-113.20105 c -1.65,-0.2383 -9.22962,-1.9594 -16.84361,-3.82466 -8.69076,-2.12906 -17.624,-3.60691 -24,-3.97039 -9.93824,-0.56657 -10.33824,-0.50375 -18.62293,2.92462 -4.65659,1.92699 -8.70659,3.26205 -9,2.9668 -1.18502,-1.19248 -0.17735,-17.35908 1.42849,-22.91812 3.30346,-11.43574 13.28784,-27.21244 25.10725,-39.67292 2.71194,-2.85903 10.33212,-10.85174 16.93372,-17.76156 29.28659,-30.65393 39.09205,-47.18478 42.57188,-71.77118 2.00364,-14.15652 -0.9017,-23.51079 -8.99648,-28.96586 -5.96175,-4.01763 -17.60995,-2.7545 -23.3052,2.52721 -7.30118,6.77102 -7.16191,23.55241 0.26021,31.35468 4.16818,4.38167 3.96358,4.84242 -3.97318,8.94767 -6.47225,3.34773 -14.79844,3.73373 -19.80785,0.91828 -7.6837,-4.31848 -11.40841,-14.24879 -9.82412,-26.19173 1.97181,-14.86427 14.15568,-26.5796 32.77842,-31.51792 7.77952,-2.06295 31.72402,-2.38169 39.68321,-0.52825 22.03372,5.13095 32.12059,19.61283 30.79734,44.21626 -1.50857,28.04921 -14.8889,47.00779 -56.97862,80.73297 -6.7042,5.37186 -15.97338,13.36703 -20.59817,17.76703 -8.12237,7.72758 -16.55583,17.38786 -15.82109,18.1226 0.19643,0.19643 4.3742,0.79112 9.28393,1.32153 4.90974,0.53042 14.3268,1.65638 20.9268,2.50214 27.04228,3.46536 35.96629,1.58285 50.50313,-10.65355 l 6.99687,-5.88962 -0.0526,9.79845 c -0.12503,23.28907 -5.20123,34.68983 -17.23234,38.70254 -4.59533,1.53267 -23.9821,2.052 -32.21505,0.86298 z m 105.93928,-3.09642 c 0.28802,-0.91886 1.65552,-7.07065 3.03889,-13.67065 1.38336,-6.6 3.43907,-16.275 4.56824,-21.5 1.12916,-5.225 3.15197,-14.74111 4.49513,-21.1469 1.34316,-6.4058 2.71893,-12.3683 3.05727,-13.25 0.55664,-1.45057 -2.48299,-1.6031 -31.94701,-1.6031 l -32.56217,0 2.36301,-6.25 c 1.29966,-3.4375 6.50289,-15.025 11.56273,-25.75 14.1546,-30.00252 19.33716,-43.34998 22.58332,-58.16237 1.70646,-7.78665 2.31933,-28.63085 0.96265,-32.74065 -0.78628,-2.3819 -0.74661,-2.3975 4.51211,-1.77469 2.91795,0.34559 7.69887,1.79938 10.62426,3.23064 13.36175,6.53729 16.66215,21.07086 9.63924,42.44707 -3.58339,10.90705 -7.92312,18.42049 -26.24314,45.43509 -4.4516,6.5643 -8.09381,12.5268 -8.09381,13.25 0,1.04375 4.22364,1.31491 20.48095,1.31491 20.42844,0 20.4822,-0.006 20.96826,-2.25 0.26802,-1.2375 2.10018,-9.9 4.07147,-19.25 1.97129,-9.35 4.88872,-23.075 6.48318,-30.5 1.59446,-7.425 4.56847,-21.375 6.60891,-31 2.04045,-9.625 3.81681,-17.64201 3.94749,-17.81559 0.1747,-0.23205 36.5096,-5.15889 38.20879,-5.18092 0.2759,-0.004 -0.19163,2.47072 -1.79441,9.49651 -0.50189,2.2 -2.07477,9.625 -3.49529,16.5 -1.42053,6.875 -2.9875,14.3 -3.48216,16.5 -6.02002,26.77389 -12.99719,59.81404 -12.99719,61.54778 0,1.77361 0.73194,1.95222 8,1.95222 4.4,0 7.99053,0.1125 7.97897,0.25 -0.0116,0.1375 -1.07882,4.3 -2.37167,9.25 l -2.35064,9 -8.05388,0.28924 -8.05388,0.28924 -1.13543,5.21076 c -0.62449,2.86592 -2.22057,10.38576 -3.54685,16.71076 -1.32629,6.325 -4.2217,20.05 -6.43425,30.5 -2.21255,10.45 -4.02497,19.35346 -4.0276,19.78547 -0.003,0.432 -8.57376,0.73379 -19.04697,0.67064 -17.30264,-0.10433 -18.99436,-0.26744 -18.51852,-1.78546 z m 50.12052,-215.28195 c -2.60941,-3.10111 -2.76478,-3.7888 -2.3396,-10.3552 1.00379,-15.50259 8.95562,-24.22391 20.16861,-22.12034 4.01398,0.75303 6.17644,4.73677 5.13791,9.46518 -0.86688,3.94687 -7.36074,9.73061 -12.47005,11.1064 -3.38393,0.9112 -4.05667,1.51145 -4.05667,3.61955 0,6.11894 4.59839,8.62918 10.59485,5.78367 6.56349,-3.11457 9.56996,-9.49299 12.08445,-25.63796 l 0.58404,-3.75 5.33694,0 c 4.33311,0 5.22868,0.28214 4.76135,1.5 -0.72402,1.88676 0.56047,1.87349 3.0795,-0.0318 2.84331,-2.15058 8.52519,-1.84847 11.12229,0.59138 l 2.19231,2.05957 3.37214,-2.05584 c 4.56419,-2.78258 9.94816,-2.70248 12.5488,0.18669 3.27129,3.63422 3.38658,5.25876 1.1205,15.789 -2.33745,10.86196 -1.94066,12.7158 2.48395,11.60529 2.2282,-0.55924 2.47373,-1.21983 2.98985,-8.0441 1.0129,-13.39282 6.61479,-21.50252 15.43228,-22.34084 3.85725,-0.36674 5.33537,-0.0309 7.54675,1.71488 6.86517,5.41957 0.24626,16.58798 -11.5,19.40448 -2.23752,0.53651 -2.75,1.21492 -2.75,3.64034 0,4.31335 3.37394,7.35616 7.28855,6.57324 1.69412,-0.33882 3.82018,-1.2857 4.72457,-2.10417 3.9909,-3.6117 4.04807,-0.39547 0.0638,3.5888 -2.58121,2.58122 -3.62481,2.92308 -8.92327,2.92308 -4.87165,0 -6.53572,-0.45061 -8.84743,-2.39578 l -2.84722,-2.39579 -2.78526,2.39579 c -3.58182,3.08095 -9.79456,3.27496 -12.67374,0.39578 -2.35013,-2.35013 -2.45565,-5.31788 -0.48,-13.5 2.72786,-11.29738 1.47232,-16.54248 -3.51796,-14.69646 -1.76672,0.65355 -2.34911,1.79511 -2.68627,5.26546 -0.23677,2.43705 -1.42394,8.931 -2.63816,14.431 l -2.20767,10 -5.07513,0.29672 -5.07514,0.29671 1.23719,-5.79671 c 4.99115,-23.38561 4.76561,-21.4187 2.69366,-23.49065 -1.48313,-1.48312 -2.42651,-1.68966 -4.36002,-0.95454 -2.21471,0.84204 -2.7512,2.25453 -5.2389,13.79329 -1.52433,7.07035 -2.99985,13.64268 -3.27894,14.60518 -0.39366,1.35762 -1.5993,1.75 -5.37718,1.75 l -4.86974,0 0.59639,-3.67511 0.59639,-3.6751 -4.20689,3.38074 c -3.56141,2.86203 -5.16968,3.44206 -10.48185,3.78031 -6.08218,0.38728 -6.36082,0.29751 -9.06998,-2.92214 z m 12.24222,-15.28632 c 3.98294,-2.05966 6.21321,-4.92139 6.83852,-8.77474 0.68435,-4.2171 -1.42255,-6.54986 -4.45157,-4.92877 -1.95829,1.04804 -5.54379,7.68234 -6.75063,12.49078 -0.75478,3.00728 0.31726,3.30522 4.36368,1.21273 z m 81.15934,-0.0824 c 4.12559,-2.13343 7.03864,-6.29188 7.03864,-10.04785 0,-3.38543 -1.76026,-4.88509 -4.49997,-3.83377 -1.45975,0.56016 -7.50003,12.04036 -7.50003,14.25461 0,1.5068 1.55186,1.39013 4.96136,-0.37299 z m -86.8602,-32.7169 -8.39884,-5.05342 3.89884,-3.33728 c 2.14436,-1.83551 4.13209,-3.35419 4.41717,-3.37483 0.28508,-0.0206 2.76008,1.81663 5.5,4.08286 2.73992,2.26623 6.06507,4.97426 7.38922,6.01785 l 2.40755,1.89743 -2.33187,2.48215 c -1.28252,1.36519 -2.81592,2.44987 -3.40754,2.4104 -0.59163,-0.0395 -4.85517,-2.34579 -9.47453,-5.12516 z"
       style="fill:#cfbea1" />
  </g>
</svg>
