<svg id="SVGRoot" version="1.1" viewBox="0 0 256 256" xmlns="http://www.w3.org/2000/svg">
 <svg transform="translate(-260.52 -318.48)" style="fill:#c4b190" version="1.1" viewBox="0 0 100 100">
  <g transform="translate(0 -952.36)">
   <path d="m43 968.36c-18.754 0-34 15.246-34 34 0 18.754 15.246 34 34 34 7.2258 0 13.954-2.2405 19.469-6.0938 2.9338 3.6987 7.4572 6.0938 12.531 6.0938 8.8188 0 16-7.1812 16-16 0-8.1601-6.1574-14.911-14.062-15.875 0.048-0.7048 0.062-1.4081 0.062-2.125 0-18.754-15.246-34-34-34zm0 4c16.592 0 30 13.408 30 30 0 0.7261-0.036 1.4451-0.094 2.1562-3.7982 0.5018-7.1791 2.3434-9.6562 5.0313-1.188-1.3606-2.6892-2.564-4.4062-3.5313-4.1862-2.3582-9.734-3.6562-15.844-3.6562s-11.658 1.298-15.844 3.6562c-4.1863 2.3583-7.1562 5.991-7.1562 10.344v5.2812c-4.3701-5.2106-7-11.934-7-19.281 0-16.592 13.408-30 30-30zm0 4c-6.6037 0-12 5.3963-12 12 0 6.6037 5.3963 12 12 12s12-5.3963 12-12c0-6.6037-5.3963-12-12-12zm0 4c4.442 0 8 3.558 8 8 0 4.4419-3.558 8-8 8s-8-3.5581-8-8c0-4.442 3.558-8 8-8zm0 26c5.5244 0 10.47 1.238 13.875 3.1562 1.8169 1.0235 3.1226 2.1948 3.9688 3.4375-1.1645 2.2173-1.8438 4.7341-1.8438 7.4063 0 2.2884 0.4735 4.4665 1.3438 6.4375-4.8978 3.4852-10.862 5.5625-17.344 5.5625-7.2188 0-13.829-2.5473-19-6.7813v-9.2187c0-2.5414 1.7198-4.9255 5.125-6.8438 3.4052-1.9182 8.3506-3.1562 13.875-3.1562zm32 1c7.1975 0 13 5.8025 13 13s-5.8025 13-13 13-13-5.8025-13-13 5.8025-13 13-13zm0 1c-2.8976 0-5.7966 1.4239-6.4688 4.25-0.1917 0.7702 0.3541 1.6551 1.125 1.8437 0.7709 0.1887 1.6269-0.3532 1.8126-1.125 0.2598-1.0923 1.5991-1.9687 3.5312-1.9687 2.0624 0 3.5 1.3493 3.5 2.7812 0 2.7094-0.7914 3.2018-2.0312 4.3438-1.2401 1.142-2.9688 2.9715-2.9688 6.375-0.011 0.7925 0.7075 1.5312 1.5 1.5312 0.7926 0 1.5112-0.7387 1.5-1.5312 0-2.5658 0.7711-2.9959 2.0312-4.1563 1.26-1.1605 2.9688-3.0495 2.9688-6.5625 0-3.3166-3.0426-5.7812-6.5-5.7812zm0 20c-1.1046 0-2 0.8954-2 2s0.8954 2 2 2 2-0.8954 2-2-0.8954-2-2-2z" overflow="visible" style="color:#000000;fill:#c4b190;text-indent:0;text-transform:none"/>
  </g>
 </svg>
</svg>
